<?xml version="1.0" encoding="UTF-8" standalone="no"?>
<!-- Created with Inkscape (http://www.inkscape.org/) -->

<svg
   xmlns:dc="http://purl.org/dc/elements/1.1/"
   xmlns:cc="http://creativecommons.org/ns#"
   xmlns:rdf="http://www.w3.org/1999/02/22-rdf-syntax-ns#"
   xmlns:svg="http://www.w3.org/2000/svg"
   xmlns="http://www.w3.org/2000/svg"
   xmlns:sodipodi="http://sodipodi.sourceforge.net/DTD/sodipodi-0.dtd"
   xmlns:inkscape="http://www.inkscape.org/namespaces/inkscape"
   version="1.1"
   id="svg2"
   width="500"
   height="565"
   viewBox="0 0 500 565"
   sodipodi:docname="strom.svg"
   inkscape:version="0.92.3 (2405546, 2018-03-11)">
  <metadata
     id="metadata8">
    <rdf:RDF>
      <cc:Work
         rdf:about="">
        <dc:format>image/svg+xml</dc:format>
        <dc:type
           rdf:resource="http://purl.org/dc/dcmitype/StillImage" />
        <dc:title></dc:title>
      </cc:Work>
    </rdf:RDF>
  </metadata>
  <defs
     id="defs6" />
  <sodipodi:namedview
     pagecolor="#ffffff"
     bordercolor="#666666"
     borderopacity="1"
     objecttolerance="10"
     gridtolerance="10"
     guidetolerance="10"
     inkscape:pageopacity="0"
     inkscape:pageshadow="2"
     inkscape:window-width="3840"
     inkscape:window-height="2093"
     id="namedview4"
     showgrid="false"
     inkscape:zoom="1.4142136"
     inkscape:cx="-420.28039"
     inkscape:cy="80.153487"
     inkscape:window-x="-18"
     inkscape:window-y="-18"
     inkscape:window-maximized="1"
     inkscape:current-layer="svg2" />
  <path
     style="fill:#000000;stroke-width:0.66666669"
     d="m 142.11433,558.18718 v -7.66667 h 40.33333 40.33334 v -66 -66 l -30.5,3.1e-4 -30.5,3.1e-4 -10.57333,12.03917 -10.57333,12.03917 1.90666,4.12718 c 1.73208,3.7493 1.90666,4.79866 1.90666,11.46053 0,6.86404 -0.13622,7.62091 -2.12875,11.82717 -9.89735,20.89345 -39.37526,20.91716 -49.653083,0.0399 -2.10715,-4.28023 -2.21817,-4.87415 -2.21817,-11.8671 0,-6.97937 0.11406,-7.59305 2.19792,-11.82597 5.53679,-11.24682 17.966593,-17.56369 29.818463,-15.15385 6.80248,1.38315 6.07882,1.78654 14.98606,-8.35351 4.50922,-5.13334 8.76778,-9.96802 9.46346,-10.74375 1.26037,-1.4054 1.23755,-1.44361 -6.42933,-10.76483 l -7.69419,-9.35442 -4.17118,1.32442 c -3.25829,1.03456 -5.36902,1.25494 -9.64423,1.00696 -10.20949,-0.59221 -18.69868,-6.24201 -23.266633,-15.48462 -9.07322,-18.35842 4.21815,-39.74562 24.691703,-39.7315 6.29625,0.005 10.45711,1.13513 15.07082,4.09574 11.73205,7.52843 16.15948,22.39674 10.4093,34.95678 l -1.62239,3.54377 8.76178,10.72514 8.76179,10.72515 30.5,0.0173 30.5,0.0172 v -56.49443 -56.49444 l -14.83334,14.79752 -14.83333,14.79751 -56.2361,0.46873 -56.236103,0.46874 -13.09723,15.60116 c -11.34461,13.51346 -13.05263,15.84119 -12.7639,17.39486 0.18333,0.98654 0.32794,4.9437 0.32135,8.7937 -0.0107,6.28414 -0.20132,7.38808 -1.86352,10.79481 -5.50129,11.27511 -17.58828,17.8214 -29.37395,15.90889 -9.35342,-1.51782 -16.9331904,-7.14539 -21.1313504,-15.68889 -2.16581996,-4.40757 -2.28585996,-5.02192 -2.28585996,-11.6989 0,-6.79099 0.0903,-7.22975 2.48386996,-12.07517 3.03801,-6.14985 7.4732604,-10.50265 13.7005704,-13.44586 4.05201,-1.9151 5.09011,-2.1189 10.81556,-2.12332 6.57625,-0.005 10.97646,1.11539 14.76958,3.76091 0.97326,0.67881 2.02326,1.2291 2.33333,1.22286 0.51373,-0.0103 21.6801,-24.83577 22.06105,-25.87479 0.0902,-0.24596 -4.18352,-5.60705 -9.49712,-11.91352 l -9.66108,-11.46632 -4.50288,2.13298 c -4.21867,1.99836 -4.96575,2.13278 -11.83622,2.12973 -6.99191,-0.003 -7.54195,-0.10781 -11.81434,-2.24883 -20.5600304,-10.30328 -20.4856204,-39.47068 0.1266,-49.61804 4.10683,-2.02179 4.71613,-2.12987 12.00706,-2.12987 7.0596,0 7.98754,0.15069 11.47549,1.86352 5.84547,2.87055 10.13253,7.12905 12.98293,12.89644 2.10462,4.25839 2.50262,5.788 2.71854,10.44774 0.1536,3.3149 -0.10292,6.7768 -0.65314,8.81428 l -0.90609,3.35531 11.69814,13.88708 11.69814,13.88708 53.163433,-0.38051 53.16343,-0.38052 17.97656,-18.19521 17.97656,-18.19521 0.0267,-19.06229 0.0267,-19.0623 -10.5,-0.43548 c -5.775,-0.23952 -17.87236,-0.43649 -26.88302,-0.43771 l -16.383,-0.002 -13.16468,14.69012 -13.1647,14.69011 0.69928,4.50695 c 1.89152,12.19112 -4.25311,23.92413 -15.39592,29.39815 -8.25593,4.05582 -18.99122,3.50156 -26.65691,-1.37628 -13.750553,-8.74978 -17.323793,-27.26647 -7.754263,-40.18302 3.24321,-4.37756 9.136153,-8.59184 14.058053,-10.05348 7.28169,-2.16243 17.78215,-0.8247 23.06739,2.93872 1.07265,0.7638 2.26409,1.38873 2.64764,1.38873 0.63177,0 20.85161,-22.10237 21.27687,-23.25781 0.099,-0.26907 -4.34117,-5.47448 -9.86713,-11.56757 l -10.04719,-11.07834 -2.40896,1.00653 c -9.73054,4.06568 -22.18809,1.52362 -29.8957,-6.10044 -13.576343,-13.4292 -9.438093,-36.25508 8.05721,-44.44212 15.85883,-7.42124 34.78225,2.09639 38.35362,19.29014 1.03065,4.9619 0.4273,11.81949 -1.41715,16.10702 -1.43937,3.3459 -1.44318,3.43441 -0.21036,4.87897 0.69058,0.80918 5.74022,6.42703 11.22141,12.4841 5.48119,6.05707 9.98119,11.05277 10,11.10157 0.0188,0.0488 12.25919,0.30702 27.20086,0.57384 l 27.16667,0.48513 v -16.31229 -16.3123 L 180.51988,140.28229 138.25872,98.52073 H 117.55108 96.843447 l -1.33336,3.01428 c -3.40569,7.69914 -9.73365,13.37086 -17.57535,15.7527 -11.53641,3.50408 -24.21809,-1.01978 -31.16548,-11.11746 -5.34398,-7.76734 -6.14275,-18.97849 -1.95787,-27.47918 6.84674,-13.907697 23.44097,-19.700737 37.30294,-13.022427 5.01928,2.418147 10.67297,8.213427 13.03682,13.363297 l 1.90729,4.15524 h 18.299313 18.2993 L 133.21902,72.08071 C 132.97811,65.972153 132.781,59.227203 132.781,57.091933 v -3.88229 l -3.42046,-1.73328 c -10.0461,-5.09074 -16.04759,-17.29981 -14.09816,-28.680465 1.56488,-9.135711 7.15163,-16.592873 15.33511,-20.469191 4.23412,-2.005606 4.97673,-2.139523 11.86419,-2.139523 6.95833,0 7.58292,0.115969 11.79645,2.190283 6.10519,3.005572 10.07011,7.051284 13.04061,13.306312 2.24271,4.722506 2.44067,5.62249 2.45337,11.153543 0.0161,6.981481 -1.17605,10.922631 -4.97166,16.436711 -2.85179,4.14296 -9.36785,8.90436 -13.81267,10.09318 l -2.99392,0.80075 0.4621,16.342937 0.4621,16.34295 35.7748,35.87424 c 19.67614,19.73084 36.2998,36.1664 36.94147,36.52346 1.09957,0.61187 1.16667,-0.49639 1.16667,-19.26872 V 120.0649 l -2.58656,-0.77495 c -3.97898,-1.19214 -9.86347,-5.94355 -12.79173,-10.32866 -3.67027,-5.49628 -4.84008,-9.95136 -4.49703,-17.12648 0.23342,-4.88231 0.62705,-6.52556 2.45028,-10.22906 2.86696,-5.82362 7.32134,-10.29424 13.08302,-13.1307 4.44148,-2.186537 4.97274,-2.287867 11.99466,-2.287867 6.87981,0 7.63332,0.13546 11.84119,2.128747 5.73343,2.71596 10.3094,7.28708 13.22643,13.21242 2.17798,4.42409 2.27974,4.95938 2.27974,11.99216 0,6.99296 -0.11102,7.58687 -2.21817,11.86711 -2.82246,5.73323 -7.56695,10.48497 -13.11075,13.13079 l -4.33775,2.07021 v 222.63261 222.63262 h -48 -48 z m -19.66095,-88.24332 c 9.79848,-4.45135 10.32671,-17.57405 0.929,-23.0789 -1.53568,-0.89955 -3.47108,-1.32223 -6.05437,-1.32223 -3.13406,0 -4.29913,0.34886 -6.67206,1.99781 -8.71051,6.05294 -7.2269,19.18404 2.56184,22.67421 3.4901,1.24439 6.06645,1.16882 9.23559,-0.27089 z m 3.60365,-92.06078 c 10.81163,-5.51569 8.7753,-20.66013 -3.14971,-23.42474 -5.68751,-1.31856 -12.20055,2.56035 -14.13354,8.41738 -3.38938,10.26993 7.69806,19.89735 17.28325,15.00736 z m -91.784093,-5.53181 c 8.59151,-4.8287 7.78467,-17.9434 -1.35255,-21.98523 -6.07188,-2.68588 -13.24364,-0.16067 -16.05862,5.6543 -5.53019,11.42383 6.33715,22.55488 17.41117,16.33093 z m 4.33116,-94.9112 c 4.58432,-3.64674 6.62133,-9.88565 4.80268,-14.70949 -0.95966,-2.54541 -4.48997,-6.16775 -7.10437,-7.28956 -5.05153,-2.16756 -11.81806,-0.41553 -15.088,3.90667 -3.48275,4.6035 -3.56049,10.06336 -0.21526,15.11834 3.73122,5.63825 12.41222,7.10475 17.60495,2.97404 z m 84.501813,0.13206 c 4.51481,-3.44361 6.32533,-8.161 5.00872,-13.05049 -0.82595,-3.06735 -3.95541,-6.93226 -6.80726,-8.40701 -2.22344,-1.14978 -7.38611,-1.34888 -9.89729,-0.38168 -7.23849,2.78797 -10.11645,12.12628 -5.76408,18.70314 3.69104,5.57754 12.24468,7.1139 17.45991,3.13604 z m 1.85997,-90.42504 c 5.12818,-1.4241 9.78584,-7.43384 9.78584,-12.62658 0,-1.28333 -0.55384,-3.53333 -1.23075,-5 -3.09997,-6.71671 -10.62438,-9.4552 -17.21428,-6.26508 -5.40607,2.61702 -8.38814,8.91973 -6.87647,14.53363 1.05826,3.93009 4.79464,7.85057 8.59802,9.02167 3.84509,1.18395 3.8795,1.18562 6.93764,0.33636 z m 111.13639,-82.62042 c 7.04485,-3.59402 8.97573,-13.25099 3.82293,-19.11972 -2.61116,-2.97394 -5.45358,-4.22009 -9.62279,-4.21874 -3.96729,0.001 -7.16409,1.58652 -9.76555,4.84254 -3.65887,4.5795 -2.99606,12.77793 1.33986,16.57299 3.92772,3.43777 9.72116,4.22089 14.22555,1.92293 z m -160.910553,-2.6149 c 6.28014,-2.85193 9.00219,-11.01417 5.71901,-17.14884 -1.23711,-2.31158 -5.26916,-5.45929 -7.94485,-6.20233 -3.10122,-0.86122 -3.26758,-0.8615 -6.33085,-0.0107 -5.65804,1.57139 -9.53036,7.1588 -9.04208,13.04688 0.73467,8.85912 9.4963,13.99452 17.59877,10.31503 z M 148.05703,38.549753 c 7.20548,-3.67596 9.34591,-12.209689 4.67852,-18.652842 -2.80147,-3.86731 -6.54728,-5.590219 -11.39195,-5.239787 -4.68185,0.338654 -8.09457,2.705504 -10.39594,7.209964 -1.81198,3.546605 -1.88653,6.752475 -0.23997,10.320096 3.12687,6.774999 10.93092,9.636999 17.34934,6.362569 z m 116.0573,351.136277 v -176.1678 l -2.98176,-1.58182 c -4.00191,-2.12302 -9.38853,-7.94073 -11.38009,-12.29086 -4.78385,-10.44932 -2.45212,-23.45393 5.65977,-31.56581 7.90182,-7.90183 19.55174,-10.23109 30.02102,-6.00237 l 3.97649,1.60618 32.85229,-38.08152 32.85228,-38.08152 -0.23682,-16 -0.23682,-15.999997 -3.42985,-1.62499 c -4.55934,-2.16011 -10.39177,-8.09902 -12.80787,-13.04167 -1.81803,-3.71916 -1.95531,-4.53926 -1.95531,-11.680687 0,-7.340548 0.0973,-7.878399 2.19792,-12.145283 10.3632,-21.05064 39.57222,-21.011659 49.98488,0.06671 2.39362,4.845418 2.48387,5.28418 2.48387,12.075165 0,6.676975 -0.12004,7.291335 -2.28586,11.698905 -1.36391,2.77562 -3.66229,5.99629 -5.69853,7.98519 -3.26895,3.19297 -9.78096,7 -11.97364,7 -0.91012,0 -1.04197,1.68725 -1.04197,13.333327 v 13.33333 l 16.5,-0.0114 16.5,-0.0114 1.61477,-3.72868 c 4.39896,-10.1577 17.13563,-16.832207 28.59768,-14.986297 23.98139,3.862087 31.98278,34.266697 12.86657,48.891837 -10.4622,8.00426 -25.33671,7.62704 -35.06196,-0.8892 -3.05059,-2.67134 -7.41116,-9.17292 -8.02418,-11.96399 l -0.43215,-1.96753 -18.1137,0.018 -18.1137,0.018 -33,38.30481 c -19.69165,22.85713 -32.94936,38.77955 -32.87443,39.482 0.0691,0.64745 0.59406,2.81757 1.16667,4.82247 3.61807,12.66824 -2.1927,25.61113 -14.47232,32.23562 l -3.48658,1.88091 18.66666,-0.37961 c 10.26667,-0.20879 22.26667,-0.38563 26.66667,-0.39298 l 8,-0.0134 11,-12.09848 c 6.05,-6.65416 11.24389,-12.50584 11.54198,-13.00374 0.32239,-0.53848 -0.0549,-2.452 -0.93132,-4.72278 -1.92844,-4.99685 -2.09937,-13.6058 -0.37029,-18.64983 2.73872,-7.98931 10.0003,-14.92914 18.32986,-17.51767 13.78726,-4.28461 29.05777,3.1585 34.13772,16.63932 8.44775,22.41801 -13.37779,44.20126 -35.94757,35.87792 -3.48397,-1.28483 -3.60195,-1.28672 -4.73715,-0.0758 -0.64032,0.68302 -4.41278,4.84186 -8.38325,9.24186 -3.97048,4.4 -8.09563,8.94716 -9.16701,10.10481 l -1.94796,2.10482 10.45347,11.65067 10.45348,11.65066 4.11735,-2.08882 c 3.90457,-1.98083 4.51357,-2.08878 11.78402,-2.08878 7.18149,0 7.94102,0.13002 12.00191,2.05454 16.69165,7.91044 20.91971,30.08526 8.30729,43.56896 -5.94292,6.35346 -12.88254,9.05688 -22.01798,8.5774 -4.53434,-0.238 -6.29281,-0.68018 -10.03905,-2.52445 -9.25264,-4.55506 -14.81369,-12.80552 -15.36912,-22.80185 -0.19924,-3.58589 0.0207,-6.75327 0.62325,-8.97591 l 0.93114,-3.43463 -12.58168,-14.06535 -12.58167,-14.06536 -16.13705,0.002 c -8.87537,0.001 -21.76204,0.19847 -28.63704,0.43874 l -12.5,0.43685 v 16.73196 16.73196 l 20.50397,20.49597 20.50397,20.49597 53.32936,-0.0341 53.32937,-0.0341 8,-9.33579 c 4.4,-5.13469 9.00507,-10.52558 10.23349,-11.97976 l 2.2335,-2.64396 -1.0461,-2.61446 c -6.66907,-16.66764 3.69426,-35.21319 21.36909,-38.24076 11.8604,-2.0316 24.39412,4.67022 29.62015,15.83799 6.80701,14.54623 -0.60686,32.27104 -15.83668,37.86178 -5.38254,1.97588 -13.78836,1.95448 -18.90678,-0.0481 -2.01667,-0.78904 -3.87492,-1.43477 -4.12944,-1.43496 -0.60164,-5.6e-4 -17.87056,19.94941 -17.87056,20.64489 0,0.29135 3.93492,5.29033 8.74428,11.10885 4.80935,5.81852 9.30728,11.29196 9.9954,12.1632 l 1.25114,1.58407 3.3964,-1.46109 c 6.54032,-2.81357 15.42944,-2.5236 22.34917,0.72906 4.87487,2.29146 10.60187,8.0354 13.09733,13.13606 2.04616,4.18231 2.16628,4.83638 2.16628,11.79574 0,7.17584 -0.0655,7.50033 -2.51059,12.44774 -10.25075,20.74098 -39.39081,20.74892 -49.6388,0.0135 -2.20557,-4.46268 -2.48409,-5.61732 -2.67077,-11.07238 -0.1706,-4.98471 0.0664,-6.8767 1.30586,-10.42348 l 1.5143,-4.33333 -11.61148,-14.16667 -11.61148,-14.16666 -56.38852,0.0172 -56.38852,0.0172 -17.13504,-17.51717 -17.13503,-17.51717 -0.0316,59.16666 -0.0317,59.16655 h 29.26382 29.2638 l 9.41836,-11.47881 c 6.48443,-7.90302 9.27784,-11.79692 8.96728,-12.5 -2.43995,-5.52377 -3.03873,-8.61182 -2.78338,-14.35452 0.20868,-4.69329 0.6513,-6.83523 2.03238,-9.8351 2.44941,-5.32044 7.73054,-10.70038 13.09742,-13.34248 4.16912,-2.05245 4.74768,-2.15576 12.07366,-2.15576 7.32597,0 7.90454,0.10331 12.07366,2.15576 5.34523,2.63144 10.62313,7.99513 13.12908,13.34248 1.61214,3.4401 1.79726,4.59396 1.79726,11.203 0,7.16496 -0.0686,7.50668 -2.48982,12.40571 -4.61186,9.33146 -12.70534,14.60609 -23.16532,15.09716 -4.56329,0.21424 -6.51626,-0.0168 -9.94642,-1.17673 -3.50559,-1.18542 -4.41281,-1.28703 -5.07739,-0.56868 -2.30998,2.49687 -14.52527,17.6311 -14.79235,18.3271 -0.17098,0.44558 4.4286,6.19976 10.22131,12.78708 l 10.53219,11.97692 2.49182,-1.27124 c 1.37051,-0.69917 4.58432,-1.63005 7.1418,-2.06861 12.16189,-2.08553 24.12866,4.36668 29.62752,15.9745 1.96725,4.15276 2.12332,4.99674 2.12332,11.48222 0,6.49619 -0.15396,7.32503 -2.13907,11.51589 -2.6154,5.52148 -7.78525,10.87364 -12.93156,13.38761 -14.02587,6.85161 -30.69127,0.93567 -37.69599,-13.38144 -2.6044,-5.32322 -3.03224,-14.55548 -0.95891,-20.69255 l 1.40894,-4.17048 -12.06841,-13.66285 -12.0684,-13.66285 h -29.2733 -29.2733 v 66 66 h 40.33334 40.33333 v 7.66667 7.66667 h -48 -48 z M 391.781,470.58994 c 8.59096,-3.97749 10.37268,-14.17674 3.57949,-20.49035 -8.03927,-7.47171 -20.73334,-1.84592 -20.73334,9.18865 0,8.86137 9.25481,14.95883 17.15385,11.3017 z m -6.14526,-92.30085 c 3.02298,-1.26554 6.98062,-5.8797 7.52304,-8.77102 C 394.7309,361.13791 388.91066,353.7 380.781,353.7 c -8.12967,0 -13.94991,7.43791 -12.37778,15.81807 0.52798,2.81441 4.45462,7.4682 7.37778,8.74402 2.61547,1.14152 7.16272,1.15399 9.85474,0.027 z m 91.99681,-4.47533 c 3.13347,-0.87017 7.05721,-4.24539 8.24775,-7.09475 1.3083,-3.13122 1.11598,-7.82962 -0.4458,-10.89098 -3.16418,-6.2023 -11.9261,-8.39745 -17.85568,-4.47344 -8.52436,5.64115 -6.77986,18.7171 2.96035,22.18938 3.15913,1.1262 3.90705,1.15464 7.09338,0.26979 z m -84.35138,-94.70735 c 3.10457,-1.50289 5.74781,-4.83138 6.86157,-8.64041 1.74834,-5.97929 -3.23554,-13.76633 -9.69212,-15.14338 -4.66088,-0.99407 -8.75671,0.39173 -12.20071,4.12802 -9.38006,10.17617 2.50603,25.71913 15.03126,19.65577 z m 82.31246,0.0514 c 8.81225,-2.4474 12.12229,-13.64349 5.97829,-20.22139 -7.06556,-7.56453 -18.75102,-4.62209 -21.41511,5.39242 -1.60818,6.04526 2.02318,12.48845 8.29085,14.71063 2.61902,0.92856 4.13809,0.95372 7.14597,0.11834 z M 278.2603,199.82448 c 6.99534,-1.94279 11.083,-10.26234 8.26686,-16.82541 -1.19159,-2.777 -4.80462,-6.09685 -7.67898,-7.05584 -6.9808,-2.32906 -14.06098,1.6705 -16.0247,9.05228 -1.60818,6.04526 2.02318,12.48844 8.29085,14.71062 2.61901,0.92856 4.13809,0.95372 7.14597,0.11835 z m 110.58456,-13.65983 c 10.7667,-3.79872 11.45046,-17.74938 1.12936,-23.04235 -6.57466,-3.37168 -15.22202,0.74441 -17.22997,8.20135 -1.75411,6.51427 2.10373,13.18027 8.72777,15.0808 3.27307,0.93909 4.10852,0.91192 7.37284,-0.2398 z m 45.11512,-83.34262 c 3.2943,-1.37645 5.40482,-3.40753 6.89432,-6.63485 4.40616,-9.54686 -4.33272,-20.13376 -14.50497,-17.57236 -4.37552,1.10177 -8.51867,5.28289 -9.41929,9.50561 -1.06024,4.97112 0.0988,8.52499 3.9629,12.15157 3.75572,3.52483 8.51238,4.45309 13.06704,2.55003 z M 366.92696,41.157843 c 5.1228,-1.42274 9.18737,-6.76126 9.18737,-12.066951 0,-8.999955 -9.24839,-15.029531 -17.47272,-11.391516 -10.78794,4.772017 -9.50023,20.033297 1.98208,23.490667 2.53274,0.76262 3.45845,0.75789 6.30327,-0.0322 z"
     id="path831"
     inkscape:connector-curvature="0" />
</svg>
