<?xml version="1.0" encoding="UTF-8" standalone="no"?>
<!-- Created with Inkscape (http://www.inkscape.org/) -->

<svg
   xmlns:dc="http://purl.org/dc/elements/1.1/"
   xmlns:cc="http://creativecommons.org/ns#"
   xmlns:rdf="http://www.w3.org/1999/02/22-rdf-syntax-ns#"
   xmlns:svg="http://www.w3.org/2000/svg"
   xmlns="http://www.w3.org/2000/svg"
   xmlns:xlink="http://www.w3.org/1999/xlink"
   xmlns:sodipodi="http://sodipodi.sourceforge.net/DTD/sodipodi-0.dtd"
   xmlns:inkscape="http://www.inkscape.org/namespaces/inkscape"
   width="210mm"
   height="21mm"
   viewBox="0 0 210 21"
   version="1.1"
   id="svg8"
   inkscape:version="0.92.3 (2405546, 2018-03-11)"
   sodipodi:docname="top.svg">
  <defs
     id="defs2">
    <linearGradient
       inkscape:collect="always"
       id="linearGradient824">
      <stop
         style="stop-color:#ffc400;stop-opacity:1;"
         offset="0"
         id="stop820" />
      <stop
         style="stop-color:#ffc400;stop-opacity:0;"
         offset="1"
         id="stop822" />
    </linearGradient>
    <linearGradient
       inkscape:collect="always"
       xlink:href="#linearGradient824"
       id="linearGradient826"
       x1="0"
       y1="286.5"
       x2="210"
       y2="286.5"
       gradientUnits="userSpaceOnUse" />
    <clipPath
       clipPathUnits="userSpaceOnUse"
       id="clipPath836">
      <use
         x="0"
         y="0"
         xlink:href="#g832"
         id="use838"
         width="100%"
         height="100%" />
    </clipPath>
    <clipPath
       clipPathUnits="userSpaceOnUse"
       id="clipPath850">
      <use
         x="0"
         y="0"
         xlink:href="#g846"
         id="use852"
         width="100%"
         height="100%" />
    </clipPath>
    <clipPath
       clipPathUnits="userSpaceOnUse"
       id="clipPath834">
      <rect
         style="opacity:1;fill:#000000;fill-opacity:1;stroke:none;stroke-width:0.26499999;stroke-miterlimit:4;stroke-dasharray:none"
         id="rect836"
         width="210"
         height="21"
         x="-2.7815501e-008"
         y="276" />
    </clipPath>
  </defs>
  <sodipodi:namedview
     id="base"
     pagecolor="#ffffff"
     bordercolor="#666666"
     borderopacity="1.0"
     inkscape:pageopacity="0.0"
     inkscape:pageshadow="2"
     inkscape:zoom="1.4"
     inkscape:cx="369.53609"
     inkscape:cy="21.443962"
     inkscape:document-units="mm"
     inkscape:current-layer="layer1"
     showgrid="false"
     inkscape:snap-page="true"
     inkscape:window-width="1920"
     inkscape:window-height="1046"
     inkscape:window-x="-11"
     inkscape:window-y="-11"
     inkscape:window-maximized="1"
     inkscape:showpageshadow="false" />
  <metadata
     id="metadata5">
    <rdf:RDF>
      <cc:Work
         rdf:about="">
        <dc:format>image/svg+xml</dc:format>
        <dc:type
           rdf:resource="http://purl.org/dc/dcmitype/StillImage" />
        <dc:title></dc:title>
      </cc:Work>
    </rdf:RDF>
  </metadata>
  <g
     inkscape:label="Vrstva 1"
     inkscape:groupmode="layer"
     id="layer1"
     transform="translate(0,-276)">
    <rect
       id="rect14"
       width="210"
       height="21"
       x="-2.7815501e-008"
       y="276"
       style="fill:url(#linearGradient826);fill-opacity:1;stroke:none;stroke-width:0.26499999;stroke-miterlimit:4;stroke-dasharray:none" />
    <g
       transform="matrix(0.13684056,0,0,0.13684056,3.7267557,279.38255)"
       inkscape:label="profilight_inv"
       id="g4586">
      <g
         id="g4588">
        <path
           inkscape:connector-curvature="0"
           id="path4590"
           style="fill:#fdfdfd;fill-opacity:1;fill-rule:nonzero;stroke:none"
           d="m 262.438,124.582 c -4.817,-1.301 -7.258,-2.352 -10.79,-4.637 -1.718,-1.113 -3.125,-2.101 -3.125,-2.199 0,-0.098 1.711,-2.992 3.805,-6.433 l 3.805,-6.25 2.105,1.726 c 4.821,3.949 12.317,5.801 17.364,4.289 4.468,-1.34 7.386,-5.973 7.812,-12.394 l 0.238,-3.61 -2.136,1.977 c -3.352,3.094 -6.715,4.121 -12.743,3.894 -4.543,-0.172 -5.289,-0.343 -8.156,-1.882 -5.488,-2.946 -9.437,-8.438 -11.324,-15.75 -1.016,-3.934 -1.02,-13.571 -0.012,-17.543 1.922,-7.563 6.477,-13.797 12.094,-16.555 2.656,-1.305 3.363,-1.426 8.398,-1.422 4.993,0 5.735,0.125 8.032,1.336 1.394,0.734 3.363,2.254 4.375,3.375 l 1.843,2.039 v -5.504 h 14.555 l -0.183,27.625 c -0.165,24.602 -0.282,27.953 -1.067,30.594 -2.812,9.461 -8.484,15.281 -17.074,17.515 -4.133,1.079 -13.484,0.977 -17.816,-0.191 z M 278.32,85.746 c 7.504,-4.863 7.489,-17.504 -0.027,-22.445 -1.773,-1.168 -2.422,-1.309 -5.324,-1.16 -4.039,0.214 -6.332,1.722 -8.196,5.398 -2.421,4.785 -2.128,10.629 0.766,15.195 2.731,4.305 8.637,5.7 12.781,3.012 z m 95.399,14.984 c -2.957,-1.046 -5.887,-3.765 -7.098,-6.574 -1.66,-3.859 -2.09,-8.062 -2.094,-20.492 l -0.004,-11.625 h -7 v -13 h 7 v -14 h 15 v 14 h 10.5 v 13 h -10.5 l 0.004,10.375 c 0,5.707 0.239,11.223 0.524,12.258 0.769,2.762 2.301,3.558 6.238,3.242 l 3.234,-0.258 v 12.766 l -2.218,0.558 c -3.114,0.786 -11.09,0.637 -13.586,-0.25 z M 0.023,86.867 V 73.191 l 6.625,-0.308 c 10.379,-0.481 15.391,-2.317 20.047,-7.344 4.469,-4.828 6.282,-11.613 5.274,-19.75 -0.614,-4.93 -2.18,-8.473 -5.149,-11.644 -4.457,-4.77 -9.441,-6.508 -19.922,-6.957 L 0.023,26.891 V 0.039 h 195 v 85.5 h 26 v 15 h -43 v -51.5 h -15 v 51.5 h -16 v -39 h 10 v -12.5 h -10 l 0.004,-4.375 c 0.004,-5.516 0.614,-7.711 2.614,-9.394 1.422,-1.196 1.902,-1.313 4.699,-1.133 l 3.113,0.195 0.305,-4.269 c 0.168,-2.352 0.43,-5.329 0.578,-6.618 l 0.273,-2.343 -1.918,-0.407 c -2.703,-0.57 -9.031,-0.422 -11.496,0.274 -2.843,0.801 -6.566,3.398 -8.468,5.91 -2.739,3.605 -3.778,7.512 -4.071,15.285 l -0.261,6.875 h -8.372 v 12.5 h 8.5 v 39 l -14.125,-0.016 -14.125,-0.019 2.747,-1.356 c 5.816,-2.875 10.89,-9.578 12.742,-16.835 0.968,-3.797 0.968,-11.094 -0.008,-15.219 -3.121,-13.25 -15.594,-21.535 -28.445,-18.895 -5.289,1.086 -8.786,2.875 -12.27,6.285 -3.078,3.016 -5.371,6.989 -6.82,11.832 -1.09,3.649 -1.219,11.782 -0.254,15.723 1.719,6.996 6.73,13.82 12.414,16.902 l 2.894,1.575 -33.75,0.023 V 86.223 c 0,-15.848 0.172,-17.035 2.926,-20.25 2.203,-2.575 4.211,-3.434 8.051,-3.434 3.598,0 3.426,0.399 3.633,-8.375 l 0.14,-6.125 -1.585,-0.297 c -4.352,-0.816 -9.555,2.192 -12.614,7.297 l -1.047,1.75 v -3.875 l -0.004,-3.875 h -14 v 51.5 h -39 z M 173.875,40.992 c 2.926,-1.418 4.863,-4.683 4.863,-8.203 0,-3.516 -1.937,-6.785 -4.863,-8.199 -1.191,-0.578 -2.664,-1.051 -3.273,-1.051 -4.579,0 -9.274,6.031 -8.309,10.668 0.602,2.895 2.574,5.652 4.844,6.773 2.683,1.329 4.011,1.333 6.738,0.012 z m 51.648,33.547 v -26 h 15.5 v 52 h -15.5 z m 82.5,-13.25 v -39.25 h 15.5 v 32.184 l 1.75,-2.047 c 0.965,-1.125 2.922,-2.629 4.352,-3.34 2.191,-1.094 3.262,-1.293 6.871,-1.285 6.68,0.019 10.949,2.594 13.738,8.297 2.368,4.828 2.754,8.675 2.774,27.566 l 0.015,17.125 h -15.5 V 84.883 c 0,-12.567 -0.148,-16.168 -0.761,-18.223 -0.985,-3.324 -2.594,-4.621 -5.739,-4.621 -2.832,0 -4.519,1.149 -6.136,4.176 -1.074,2.004 -1.117,2.644 -1.262,18.199 l -0.152,16.125 h -15.45 z M 91.773,86.758 c -3.988,-2.07 -6.351,-6.379 -6.437,-11.719 -0.066,-4.309 0.918,-7.5 3.094,-10.043 2.179,-2.547 4.222,-3.457 7.773,-3.457 2.227,0 3.137,0.289 5.117,1.625 3.305,2.231 4.883,5.387 5.129,10.262 0.434,8.547 -3.726,14.121 -10.531,14.113 -1.453,-0.004 -3.32,-0.355 -4.145,-0.781 z M 0.023,50.293 v -8.859 l 5.875,0.179 c 5.047,0.153 6.133,0.34 7.7,1.313 2.289,1.422 3.425,3.781 3.425,7.113 0,3.391 -1.179,5.774 -3.664,7.422 -1.82,1.203 -2.539,1.344 -7.671,1.508 l -5.665,0.179 z m 228.618,-9.379 c -2.028,-1.406 -4.118,-5.461 -4.118,-7.988 0,-3.512 2.129,-7.137 5.102,-8.684 2.23,-1.16 6.371,-0.902 8.48,0.531 5.145,3.497 5.145,12.54 0,16.036 -2.492,1.695 -7.105,1.746 -9.464,0.105 z" />
      </g>
    </g>
    <g
       id="g848"
       clip-path="url(#clipPath834)">
      <g
         inkscape:label="Clip"
         id="g846">
        <g
           clip-path="url(#clipPath836)"
           id="g834">
          <g
             id="g832"
             inkscape:label="Clip">
            <g
               id="g826">
              <path
                 style="fill:#ffffff;fill-opacity:0.49803922;stroke-width:0.09221283"
                 d="m -5.4074693,299.57324 0.4445699,-0.96276 5.06495613,2.33882 5.06495737,2.33881 L 8.9941724,295 l 3.8271586,-8.28811 -3.8301332,-1.76856 -3.8301328,-1.76857 -2.0258862,0.89872 -2.0258902,0.89873 1.092e-4,0.62885 c 1.029e-4,0.57126 -0.03883,0.71317 -0.42512684,1.54973 -0.39803147,0.86198 -0.45902489,0.94913 -0.95314902,1.36179 -2.45443914,2.04983 -6.15757434,0.34347 -6.23782234,-2.87379 -0.016411,-0.65969 0.00409,-0.74071 0.4095897,-1.61887 0.4047139,-0.87645 0.4546243,-0.9469 0.961761,-1.35762 1.347471,-1.09129 3.2746689,-1.16377 4.62325965,-0.1739 0.77403147,0.56815 0.65976748,0.57684 2.36630805,-0.18001 0.8639196,-0.38314 1.6790531,-0.74334 1.8113938,-0.8004 0.2397715,-0.10341 0.239124,-0.10954 -0.183153,-1.72465 l -0.4237826,-1.62086 -0.600604,-0.0756 c -0.4691548,-0.059 -0.7469975,-0.15375 -1.269488,-0.4328 -1.24774692,-0.66637 -1.98617513,-1.86814 -2.02385396,-3.29368 -0.0748378,-2.83153 2.83444666,-4.74656 5.40464096,-3.55758 0.7904442,0.36559 1.2473545,0.74893 1.6550546,1.38825 1.0367304,1.6257 0.7305405,3.74957 -0.7198767,4.99339 l -0.4092286,0.35094 0.4783618,1.85491 0.478363,1.8549 3.8292734,1.77043 3.8292733,1.77042 3.275954,-7.09441 3.275958,-7.09443 -2.720804,0.99809 -2.720794,0.99808 -7.089151,-3.20214 -7.08915128,-3.20215 -2.54938052,1.19967 c -2.2082348,1.03915 -2.5577055,1.23242 -2.6115404,1.44427 -0.034184,0.13452 -0.2454906,0.63983 -0.4695638,1.12292 -0.3656721,0.78856 -0.4537058,0.91611 -0.8599786,1.24752 -1.3446516,1.0969 -3.2421076,1.21808 -4.6112194,0.29449 -1.086566,-0.73298 -1.712087,-1.87921 -1.743867,-3.19552 -0.01639,-0.67909 0.0042,-0.76319 0.391333,-1.60166 0.393793,-0.8528 0.430576,-0.90267 1.012124,-1.37234 0.738122,-0.59612 1.5474937,-0.88554 2.500171,-0.89404 0.6198945,-0.006 0.7620743,0.0291 1.4813216,0.36051 0.8260425,0.38088 1.3137134,0.77657 1.6366353,1.32875 0.082854,0.14168 0.1828031,0.27167 0.2221059,0.28886 0.065353,0.028 4.1626863,-1.86164 4.27077577,-1.97003 0.0255841,-0.0256 -0.20021834,-0.94671 -0.50179007,-2.04678 l -0.5483142,-2.00013 -0.6891448,0.007 c -0.6456483,0.006 -0.7472627,-0.0201 -1.6098583,-0.4189 -0.8778545,-0.40582 -0.9408524,-0.45087 -1.3532141,-0.96748 -1.9844141,-2.48609 -0.2837332,-6.14454 2.8931106,-6.22357 0.6329617,-0.0157 0.7157477,0.006 1.63132407,0.42879 0.88652689,0.40937 0.99433531,0.48206 1.3330024,0.89945 0.56760063,0.69944 0.85902103,1.48281 0.88253223,2.37235 0.017363,0.65679 -0.021357,0.87196 -0.2644464,1.46964 -0.17294088,0.42518 -0.40589965,0.84505 -0.59313194,1.06899 l -0.30835338,0.36882 0.66375007,2.42224 0.66374825,2.42225 6.6981791,3.03505 6.6981779,3.03504 3.312541,-1.2425 3.312542,-1.24249 1.108728,-2.39225 1.108728,-2.39224 -1.293326,-0.66352 c -0.711333,-0.36492 -2.219043,-1.0912 -3.350537,-1.6138 l -2.057222,-0.95025 -2.505024,1.08136 -2.505026,1.08136 -0.173536,0.60652 c -0.469398,1.64062 -1.9213899,2.75771 -3.6380978,2.79898 -1.2719452,0.0306 -2.587913,-0.66154 -3.2677016,-1.71859 -1.2193805,-1.89613 -0.594369,-4.42861 1.3563442,-5.49573 0.6611211,-0.36167 1.6455124,-0.54916 2.3483477,-0.4473 1.0398071,0.15069 2.2808575,0.92757 2.7263365,1.70665 0.09041,0.15811 0.203789,0.30568 0.251954,0.32792 0.07934,0.0366 3.900145,-1.56643 4.020553,-1.68688 0.02802,-0.028 -0.2277,-0.9392 -0.568319,-2.02478 l -0.619297,-1.9738 -0.36088,-0.0133 c -1.457693,-0.0537 -2.874672,-1.0953 -3.400477,-2.49965 -0.9261535,-2.47367 0.917119,-5.1001 3.588884,-5.11372 2.421843,-0.0123 4.246298,2.2802 3.697766,4.64643 -0.158302,0.68287 -0.631727,1.50905 -1.111968,1.94051 -0.374767,0.3367 -0.38038,0.3476 -0.309335,0.60049 0.0398,0.14165 0.348156,1.13994 0.685237,2.21842 0.337081,1.07847 0.612493,1.96676 0.612026,1.97397 -1.55e-4,0.007 1.521659,0.74947 3.382527,1.64939 l 3.38339,1.63624 0.945903,-2.04845 0.945908,-2.04846 -2.885246,-7.69536 -2.885413,-7.69492 -2.600413,-1.20077 -2.600411,-1.20078 -0.342229,0.3012 c -0.87413,0.76935 -1.997666,1.11466 -3.120521,0.95904 -1.651904,-0.22893 -2.9821141,-1.5324 -3.2690095,-3.20331 -0.2206774,-1.28528 0.3291149,-2.73946 1.3475775,-3.56429 1.666264,-1.34947 4.086043,-1.11468 5.439541,0.52777 0.490086,0.59472 0.864012,1.65031 0.86223,2.4341 l -0.0014,0.6324 2.29798,1.06113 2.29798,1.06112 0.589025,-1.42012 c 0.323968,-0.78106 0.690332,-1.63951 0.814151,-1.90766 l 0.225121,-0.48752 -0.3291,-0.41566 c -0.966368,-1.22182 -1.01205,-3.10301 -0.10731,-4.41913 0.726263,-1.05648 1.860253,-1.66897 3.112695,-1.68122 0.648004,-0.006 0.749027,0.0199 1.613937,0.4193 0.873808,0.40349 0.945493,0.45433 1.354358,0.95909 0.592393,0.73145 0.855697,1.46942 0.866009,2.42716 0.0078,0.72309 -0.01953,0.84758 -0.338675,1.5429 -0.402834,0.87763 -0.781054,1.30343 -1.577446,1.77579 -0.59836,0.35489 -1.692729,0.57496 -2.319836,0.46651 l -0.422398,-0.0731 -0.889653,2.07911 -0.889653,2.07911 2.412259,6.57948 c 1.326743,3.61871 2.461249,6.6466 2.521122,6.72865 0.102615,0.14056 0.175309,0.005 1.263851,-2.35207 l 1.154984,-2.50124 -0.279877,-0.24731 c -0.430539,-0.38044 -0.893983,-1.31832 -1.007423,-2.0388 -0.142189,-0.90303 -0.03075,-1.53032 0.428391,-2.41147 0.312428,-0.59957 0.45714,-0.7831 0.900857,-1.14245 0.697721,-0.56507 1.516329,-0.86818 2.404345,-0.89028 0.684541,-0.017 0.757129,0.001 1.638924,0.40824 0.863949,0.39894 0.950733,0.45961 1.363545,0.95397 0.562502,0.67352 0.872072,1.5129 0.89479,2.42614 0.01697,0.68186 -0.0013,0.75498 -0.409106,1.63813 -0.405502,0.87816 -0.453886,0.9463 -0.966693,1.36162 -0.686893,0.5563 -1.558235,0.8779 -2.407833,0.88867 l -0.664769,0.008 L 19.113427,278.14487 6.2035761,306.1025 0.17581325,303.31909 -5.8519037,300.5357 Z m 2.6480156,-12.22146 c 1.488587,0.009 2.31587306,-1.60808 1.4549412,-2.84431 -0.1406822,-0.20202 -0.3592167,-0.36732 -0.6836199,-0.51712 -0.3935674,-0.18173 -0.5600801,-0.20553 -0.9537051,-0.13602 -1.4448375,0.25502 -2.0199683,1.99002 -0.9931098,2.99594 0.3661203,0.35864 0.6940371,0.49854 1.175502,0.5015 z M 3.0314314,276 c 1.6775385,-0.0657 2.3000065,-2.0856 0.9628073,-3.12427 -0.6377641,-0.49538 -1.6805833,-0.38595 -2.2629557,0.23747 -1.02115552,1.09313 -0.1870871,2.94505 1.3001484,2.8868 z m -11.2052336,-6.01698 c 1.3589026,-0.10818 2.0180686,-1.80188 1.1050127,-2.83928 -0.606744,-0.68938 -1.6537943,-0.78812 -2.3444771,-0.22114 -1.3569024,1.11389 -0.5120915,3.19985 1.2394644,3.06042 z m 6.0475331,-11.66755 c 0.7871542,-0.19212 1.40473369,-0.85746 1.45607289,-1.56869 0.0270904,-0.37529 -0.20618721,-1.03489 -0.46944969,-1.32736 -0.5086655,-0.56513 -1.4599759,-0.7375 -2.1212464,-0.38433 -0.7042977,0.37614 -1.0306608,1.05726 -0.9036996,1.88605 0.1416144,0.92439 1.1467073,1.61195 2.0383273,1.39433 z m 10.6038483,4.91664 c 0.7666405,-0.17063 1.2675514,-0.65804 1.3857423,-1.3484 0.074145,-0.43308 -0.094725,-1.0999 -0.3673352,-1.45047 -0.2125445,-0.27331 -0.8493133,-0.59769 -1.2207405,-0.62185 -1.070654,-0.0697 -1.9735644,0.93615 -1.80838,2.01444 0.1400848,0.91445 1.1251431,1.60337 2.0107218,1.40626 z m 5.4770588,-11.24747 c 0.726564,0.11854 1.659948,-0.36606 1.961062,-1.01816 0.07442,-0.16116 0.135341,-0.47581 0.135384,-0.69926 1.97e-4,-1.02322 -0.785904,-1.80343 -1.798431,-1.78496 -0.830636,0.0152 -1.570591,0.63372 -1.706294,1.42635 -0.095,0.5549 0.146863,1.26389 0.556576,1.6315 0.4142,0.37165 0.418424,0.37385 0.851674,0.4446 z m 18.747152,-3.93076 c 1.093081,-0.0428 1.895539,-1.14355 1.588771,-2.17932 -0.155449,-0.52488 -0.44013,-0.84619 -0.963769,-1.08778 -0.498257,-0.22994 -0.991643,-0.2162 -1.507135,0.0418 -0.725023,0.36291 -1.117197,1.43089 -0.792769,2.15889 0.293886,0.65947 0.976,1.09375 1.674902,1.06638 z m -20.055086,-9.65917 c 0.95402,0.006 1.769157,-0.86112 1.712594,-1.82188 -0.02131,-0.36202 -0.34512,-0.9911 -0.638038,-1.23957 -0.339505,-0.28798 -0.360379,-0.29766 -0.794173,-0.36893 -0.801642,-0.13076 -1.611918,0.34635 -1.892032,1.11407 -0.42146,1.15511 0.381018,2.30806 1.611863,2.31585 z m 12.824429,-3.73158 c 1.118006,-0.0438 1.881643,-0.99132 1.669144,-2.07109 -0.127548,-0.64809 -0.49803,-1.08166 -1.126732,-1.31858 -0.607597,-0.22891 -1.173378,-0.12963 -1.723578,0.30257 -0.433205,0.34031 -0.628464,0.73857 -0.628568,1.28206 -1.97e-4,1.0321 0.813856,1.84404 1.809737,1.80504 z m -5.787247,50.82463 10.215483,-22.12269 -0.282714,-0.37155 c -0.379445,-0.49866 -0.718526,-1.5416 -0.716371,-2.20335 0.0052,-1.58961 1.052098,-3.08748 2.541154,-3.63576 1.450494,-0.53409 3.048531,-0.15105 4.118022,0.98707 l 0.406222,0.43228 6.333749,-2.87717 6.333745,-2.87716 0.898055,-2.02297 0.898055,-2.02298 -0.336486,-0.40294 c -0.44729,-0.53565 -0.835328,-1.61965 -0.852127,-2.38044 -0.01264,-0.57246 0.01768,-0.68341 0.431791,-1.58022 0.425654,-0.92179 0.469065,-0.9837 0.980282,-1.39772 2.522049,-2.04255 6.187787,-0.3439 6.2732,2.90666 0.01961,0.74727 0.0055,0.80761 -0.388289,1.6604 -0.387177,0.83847 -0.437902,0.90865 -0.965438,1.33656 -0.332227,0.26947 -0.807612,0.54064 -1.178644,0.67233 -0.595659,0.2114 -1.634184,0.31187 -1.909535,0.18472 -0.114291,-0.0528 -0.228683,0.15145 -0.904008,1.61394 l -0.773161,1.67436 2.072868,0.95498 2.072863,0.95497 0.418995,-0.3746 c 1.141438,-1.02051 3.127907,-1.1201 4.460241,-0.22365 2.787571,1.8756 2.02928,6.15772 -1.219352,6.88581 -1.777961,0.39848 -3.623991,-0.51142 -4.351429,-2.14481 -0.228179,-0.51236 -0.398764,-1.58166 -0.313896,-1.96771 l 0.05983,-0.27213 -2.275509,-1.04855 -2.275513,-1.04855 -6.365249,2.89665 c -3.798249,1.72847 -6.386412,2.95918 -6.417738,3.05175 -0.02885,0.0854 -0.08878,0.38827 -0.133131,0.67323 -0.280252,1.80066 -1.760475,3.08904 -3.686653,3.20886 l -0.546906,0.034 2.36612,1.03476 c 1.301336,0.56919 2.818537,1.2428 3.371538,1.49694 l 1.005459,0.46208 2.082912,-0.88144 c 1.1456,-0.48479 2.137159,-0.91845 2.203464,-0.96369 0.07172,-0.0489 0.135281,-0.31109 0.156908,-0.64708 0.04758,-0.73931 0.525327,-1.83031 1.034951,-2.36347 0.807197,-0.84446 2.121513,-1.29487 3.317617,-1.13692 1.979822,0.26144 3.465849,2.08161 3.32206,4.06907 -0.239113,3.30506 -4.243056,4.77494 -6.594668,2.42096 -0.362999,-0.36338 -0.37771,-0.37045 -0.590478,-0.28422 -0.120028,0.0487 -0.83491,0.35214 -1.588653,0.67444 -0.753749,0.32231 -1.535448,0.65411 -1.737124,0.73737 l -0.366669,0.15136 0.637125,2.06923 0.637136,2.06922 0.63817,-0.0236 c 0.605188,-0.0223 0.687924,-5.7e-4 1.600929,0.42102 0.901836,0.41644 0.989666,0.47682 1.38803,0.95397 1.637387,1.96128 0.882489,4.9911 -1.483233,5.95299 -1.114716,0.45323 -2.142942,0.39031 -3.262342,-0.19963 -0.555617,-0.29281 -0.750784,-0.45034 -1.114293,-0.89916 -0.897788,-1.10854 -1.117708,-2.46709 -0.6078,-3.7546 0.18292,-0.46187 0.394238,-0.84685 0.598756,-1.09103 l 0.316098,-0.37732 -0.764364,-2.49587 -0.764363,-2.49587 -2.026566,-0.93549 c -1.114601,-0.51454 -2.74435,-1.23695 -3.621613,-1.60547 l -1.595081,-0.66992 -0.97024,2.10116 -0.970239,2.10115 1.386329,3.7628 1.38633,3.76281 6.69906,3.08788 6.69906,3.08788 1.545978,-0.70846 c 0.850287,-0.38965 1.741182,-0.7996 1.979764,-0.91097 l 0.433794,-0.2025 0.02024,-0.38898 c 0.129026,-2.47981 2.505832,-4.20776 4.900953,-3.56305 1.607209,0.43263 2.79254,2.00102 2.80122,3.70649 0.01131,2.22139 -1.947518,4.01732 -4.184227,3.83625 -0.790505,-0.064 -1.844841,-0.55411 -2.37175,-1.1018 -0.2075,-0.21602 -0.403407,-0.40486 -0.435356,-0.41965 -0.07552,-0.035 -3.400946,1.46893 -3.44128,1.55627 -0.01689,0.0366 0.187365,0.89252 0.453915,1.90208 0.266542,1.00956 0.513992,1.95772 0.549881,2.10703 l 0.06526,0.27147 0.511236,0.0135 c 0.984469,0.0259 2.083929,0.57781 2.764278,1.38752 0.4793,0.57043 0.865406,1.62383 0.883008,2.40907 0.01443,0.64386 -0.0084,0.73296 -0.411969,1.6069 -0.416108,0.90112 -0.443094,0.93809 -1.037083,1.41757 -2.489977,2.01019 -6.149766,0.32142 -6.234351,-2.8766 -0.01819,-0.68832 0.01379,-0.84947 0.306672,-1.54532 0.26765,-0.63585 0.407109,-0.85969 0.768417,-1.23323 l 0.441438,-0.45636 -0.636657,-2.45233 -0.636653,-2.45233 -7.081965,-3.268 -7.081964,-3.268 -1.135998,-3.19338 -1.135997,-3.19338 -3.434912,7.42816 -3.434899,7.42814 3.674875,1.69693 3.674873,1.69692 1.848359,-0.89533 c 1.272571,-0.61643 1.849157,-0.94343 1.850932,-1.04974 0.0139,-0.83513 0.117775,-1.25765 0.482846,-1.964 0.298351,-0.57727 0.478145,-0.82058 0.825531,-1.11721 0.616109,-0.52609 1.591267,-0.89545 2.418433,-0.91603 0.642566,-0.016 0.721206,0.005 1.641186,0.42941 0.919976,0.42481 0.986637,0.47134 1.391174,0.97083 0.518654,0.6404 0.870409,1.62001 0.87502,2.43683 0.003,0.52548 -0.04069,0.68111 -0.423932,1.51106 -0.415476,0.89976 -0.443914,0.93868 -1.032042,1.4135 -1.12025,0.90439 -2.44247,1.09745 -3.784482,0.55258 -0.585457,-0.23774 -0.817458,-0.37968 -1.180811,-0.72455 -0.371481,-0.35214 -0.479518,-0.4175 -0.604611,-0.36587 -0.434871,0.1796 -2.846426,1.37179 -2.920324,1.4437 -0.0473,0.046 0.196628,1.03535 0.542078,2.19848 l 0.628101,2.11475 0.386629,-0.0151 c 0.212644,-0.008 0.670212,0.0611 1.016798,0.15437 1.648196,0.44334 2.776809,1.9475 2.794231,3.72406 0.0062,0.63556 -0.0231,0.7506 -0.399174,1.56502 -0.376701,0.81579 -0.444081,0.91095 -0.936401,1.32211 -0.648608,0.5417 -1.60818,0.91403 -2.400223,0.93132 -2.158635,0.0471 -3.908385,-1.66221 -3.957811,-3.8663 -0.01838,-0.8195 0.463251,-2.00367 1.079484,-2.65412 l 0.418771,-0.44203 -0.723247,-2.41556 -0.72325,-2.41556 -3.676066,-1.69747 -3.676066,-1.69748 -3.827158,8.28811 -3.827158,8.28811 5.064957,2.33882 5.064956,2.33882 -0.44457,0.96276 -0.44457,0.96276 -6.027717,-2.78338 -6.027716,-2.78339 z m 11.340656,17.56275 c 1.309474,-0.001 2.124641,-1.17879 1.637684,-2.36556 -0.576288,-1.40446 -2.496599,-1.43408 -3.136462,-0.0484 -0.513847,1.11279 0.294771,2.41515 1.498778,2.41395 z m 4.580565,-11.94725 c 0.453003,0.0164 1.217559,-0.33357 1.453335,-0.66521 0.683363,-0.96119 0.383777,-2.23273 -0.637123,-2.70414 -1.020904,-0.47142 -2.183101,0.12512 -2.471617,1.26863 -0.0969,0.38405 0.126338,1.19615 0.419445,1.52587 0.262247,0.29501 0.832556,0.56027 1.235855,0.57508 z m 11.812236,4.77263 c 0.443955,0.0724 1.132405,-0.12389 1.447138,-0.41267 0.345863,-0.31735 0.594161,-0.91851 0.575557,-1.39351 -0.03769,-0.96235 -1.010705,-1.74609 -1.982866,-1.59717 -1.397581,0.2141 -1.936755,1.9573 -0.914954,2.95816 0.331416,0.32461 0.423683,0.37155 0.875132,0.44519 z M 42.31654,279.09146 c 0.477015,-0.009 1.001956,-0.2734 1.362692,-0.68715 0.566273,-0.64948 0.391962,-1.91636 -0.338987,-2.46368 -0.527657,-0.39511 -1.122326,-0.45866 -1.771511,-0.1891 -1.768007,0.73397 -1.176674,3.37505 0.747806,3.33993 z m 10.333656,4.77943 c 1.248534,0.20367 2.313433,-1.01038 1.923319,-2.19269 -0.448629,-1.35964 -2.086681,-1.66774 -3.001947,-0.56463 -0.552498,0.6659 -0.470104,1.68559 0.188115,2.32809 0.275045,0.26847 0.464346,0.35972 0.8905,0.42926 z M 32.469935,262.46553 c 0.991115,0.16167 1.986864,-0.64605 2.013791,-1.63352 0.01139,-0.41782 -0.249809,-1.04424 -0.555158,-1.33134 -0.741576,-0.69727 -1.862608,-0.60558 -2.537255,0.20753 -0.552501,0.6659 -0.470109,1.6856 0.188112,2.3281 0.275048,0.26847 0.464346,0.35972 0.890497,0.42926 z m 14.679022,4.69713 c 1.572334,0.14729 2.46716,-1.56495 1.477985,-2.82811 -0.630117,-0.80466 -1.954707,-0.78921 -2.639268,0.0308 -0.598022,0.71633 -0.500109,1.77714 0.221515,2.39991 0.356571,0.30772 0.463053,0.35276 0.939739,0.39748 z m 10.498247,-7.84984 c 0.493508,0.0182 0.87632,-0.11451 1.250512,-0.43342 1.10691,-0.94336 0.623404,-2.77958 -0.80252,-3.0478 -0.613357,-0.11536 -1.3761,0.16945 -1.734061,0.6475 -0.421402,0.56278 -0.481948,1.07627 -0.206982,1.75576 0.26724,0.66042 0.810738,1.05282 1.493051,1.07796 z m -4.842096,-11.6307 c 0.725808,0.11839 1.545796,-0.31632 1.853455,-0.98259 0.521884,-1.13019 -0.289865,-2.42366 -1.533615,-2.44371 -1.631437,-0.0263 -2.35469,1.96484 -1.113255,3.06483 0.273831,0.24264 0.390357,0.29572 0.793646,0.36097 z"
                 id="path831"
                 inkscape:connector-curvature="0" />
              <path
                 style="fill:#ffffff;fill-opacity:0.49803922;stroke-width:0.09221283"
                 d="m 99.901858,314.76998 -0.652459,-0.83597 4.397951,-3.43249 4.39793,-3.43249 -5.6168,-7.19663 -5.616809,-7.19663 -3.325687,2.59569 -3.325687,2.59568 -0.12835,2.21256 -0.128334,2.21258 0.559135,0.28776 c 0.507948,0.26142 0.616294,0.36099 1.183216,1.08738 0.584168,0.74847 0.633721,0.84259 0.774414,1.4708 0.698895,3.12052 -2.513339,5.63177 -5.410463,4.23037 -0.594016,-0.28739 -0.656669,-0.34272 -1.251799,-1.10522 -0.593965,-0.76103 -0.633745,-0.83765 -0.766756,-1.47654 -0.353413,-1.69756 0.46435,-3.44416 1.961754,-4.19003 0.859451,-0.42809 0.814862,-0.32253 0.923169,-2.18622 0.05483,-0.94348 0.107718,-1.83308 0.117568,-1.97686 0.01782,-0.26051 0.01207,-0.26274 -1.617182,-0.62665 l -1.635056,-0.3652 -0.342149,0.49938 c -0.267218,0.3901 -0.478644,0.59375 -0.965918,0.93055 -1.163617,0.8043 -2.570105,0.91069 -3.854763,0.29163 -2.551706,-1.22964 -2.922541,-4.69285 -0.688899,-6.43366 0.686865,-0.53541 1.236849,-0.76616 1.991882,-0.83597 1.919936,-0.17755 3.66805,1.06691 4.109948,2.92581 l 0.12469,0.52449 1.86812,0.42381 1.868129,0.42381 3.326947,-2.59407 3.326938,-2.59407 -4.807846,-6.16014 -4.807845,-6.16014 -0.35812,2.87588 -0.358108,2.87588 -6.092107,4.83695 -6.092107,4.83695 -0.10042,2.81575 c -0.08696,2.43897 -0.07511,2.83815 0.0886,2.98299 0.103943,0.092 0.45647,0.51114 0.783409,0.93151 0.533687,0.68608 0.60679,0.82273 0.71546,1.33565 0.359701,1.69762 -0.401158,3.44006 -1.849028,4.23452 -1.149055,0.63051 -2.454488,0.66194 -3.639333,0.0876 -0.611263,-0.29629 -0.676609,-0.35309 -1.244855,-1.08111 -0.577937,-0.74049 -0.605438,-0.79602 -0.756797,-1.52806 -0.192109,-0.92912 -0.07892,-1.7812 0.349622,-2.63209 0.278431,-0.55388 0.374722,-0.66422 0.998616,-1.15198 0.716763,-0.56006 1.291799,-0.8125 1.93055,-0.84683 0.163889,-0.009 0.325215,-0.0382 0.35849,-0.0652 0.05481,-0.0453 0.250394,-4.55313 0.203507,-4.69885 -0.01105,-0.0345 -0.933348,-0.25536 -2.04944,-0.49081 l -2.029261,-0.4281 -0.309243,0.61591 c -0.29022,0.57677 -0.35994,0.65517 -1.109368,1.23952 -0.762655,0.59471 -0.831546,0.6301 -1.479614,0.76023 -3.118729,0.62624 -5.59285,-2.5605 -4.208867,-5.42112 0.275789,-0.56994 0.332978,-0.63361 1.127988,-1.25409 0.76978,-0.60079 0.883758,-0.66336 1.409878,-0.7734 0.881681,-0.18446 1.711556,-0.0849 2.513194,0.30135 0.591873,0.28522 0.76545,0.41814 1.185555,0.90786 0.298851,0.34838 0.565506,0.7477 0.678897,1.01668 l 0.186755,0.44298 2.457399,0.5187 2.457399,0.5187 5.764561,-4.56585 5.76456,-4.56584 0.411698,-3.51386 0.41169,-3.51386 -1.619341,-2.08083 -1.619351,-2.08082 -1.181948,0.84613 c -0.650072,0.46537 -1.985955,1.47338 -2.968542,2.24013 l -1.786574,1.39403 -0.185302,2.72216 -0.185303,2.72216 0.459802,0.43193 c 1.243768,1.16835 1.572264,2.97064 0.823108,4.51581 -0.555045,1.14486 -1.772812,1.99801 -3.02379,2.11852 -2.243979,0.21614 -4.209441,-1.49883 -4.265222,-3.72164 -0.01891,-0.75334 0.265013,-1.71437 0.677316,-2.29261 0.609952,-0.85549 1.868764,-1.60325 2.765357,-1.64267 0.181949,-0.008 0.36505,-0.0413 0.406871,-0.0739 0.06886,-0.0538 0.392676,-4.18457 0.340705,-4.34676 -0.01207,-0.0377 -0.939251,-0.22749 -2.060335,-0.4216 l -2.038344,-0.35294 -0.177022,0.31476 c -0.715023,1.27141 -2.289725,2.05441 -3.77899,1.87902 -2.623235,-0.30894 -4.11454,-3.15003 -2.90361,-5.53166 1.097697,-2.15882 3.971069,-2.73148 5.823723,-1.16061 0.534657,0.45333 1.052475,1.25244 1.216237,1.87691 0.127796,0.48733 0.134917,0.49731 0.392277,0.54991 0.144156,0.0295 1.172865,0.21229 2.286024,0.40629 1.113135,0.19399 2.028964,0.35576 2.03516,0.35947 0.0062,0.003 1.362895,-1.00978 3.014839,-2.25228 l 3.003523,-2.25907 -1.388213,-1.77868 -1.388229,-1.77869 -8.162512,-0.95748 -8.16219,-0.95711 -2.257949,1.76229 -2.257957,1.76228 0.111129,0.44215 c 0.283863,1.12934 0.07655,2.28632 -0.575806,3.21338 -0.959719,1.36387 -2.727522,1.94985 -4.344415,1.44003 -1.243726,-0.39215 -2.284924,-1.54663 -2.552043,-2.8297 -0.437022,-2.09917 0.879412,-4.14305 2.959254,-4.59455 0.753094,-0.16349 1.862761,-0.0127 2.558792,0.34765 l 0.561655,0.29065 1.995356,-1.55733 1.995347,-1.55733 -0.992956,-1.17376 c -0.54612,-0.64558 -1.141636,-1.36427 -1.323362,-1.5971 l -0.330389,-0.42332 -0.520202,0.10232 c -1.528656,0.29987 -3.222085,-0.52066 -3.978054,-1.92751 -0.606832,-1.12932 -0.63228,-2.4179 -0.06985,-3.53702 0.291299,-0.57887 0.360571,-0.65683 1.111592,-1.24297 0.75873,-0.59218 0.836745,-0.63264 1.472678,-0.76509 0.921489,-0.19185 1.69813,-0.0881 2.554352,0.34112 0.646451,0.32407 0.744621,0.40536 1.216717,1.0074 0.595875,0.75989 0.801307,1.29107 0.85671,2.21536 0.04162,0.69444 -0.263688,1.76815 -0.647176,2.27605 l -0.25835,0.34208 1.441231,1.74271 1.44123,1.74271 6.953888,0.86717 c 3.824635,0.47695 7.035989,0.85435 7.136345,0.83868 0.171941,-0.0269 0.0847,-0.15357 -1.512617,-2.20035 l -1.695077,-2.17185 -0.347994,0.13563 c -0.535325,0.20863 -1.581318,0.19133 -2.273805,-0.0376 -0.86795,-0.28696 -1.374644,-0.67319 -1.947873,-1.48476 -0.390044,-0.55223 -0.486972,-0.7649 -0.603343,-1.3239 -0.182996,-0.87899 -0.07775,-1.74555 0.309097,-2.54517 0.298248,-0.6164 0.347476,-0.67269 1.113199,-1.27025 0.750173,-0.5855 0.843837,-0.63488 1.472333,-0.7756 0.856301,-0.19179 1.744282,-0.0828 2.566616,0.31507 0.614005,0.29702 0.670775,0.34649 1.269146,1.1136 0.595126,0.76251 0.633556,0.83672 0.768065,1.48276 0.180154,0.86536 0.06721,1.78726 -0.31213,2.54754 l -0.297195,0.5947 18.946918,24.27604 18.946722,24.27581 -5.23395,4.08498 -5.23391,4.08495 z m -9.653605,-7.94882 c 0.689424,-1.31935 -0.369586,-2.79511 -1.862789,-2.59558 -0.244001,0.0326 -0.491011,0.15122 -0.772695,0.37107 -0.341723,0.26672 -0.439116,0.40387 -0.557495,0.78565 -0.434672,1.4013 0.844596,2.70686 2.209001,2.25439 0.486454,-0.16134 0.760935,-0.38885 0.983964,-0.81555 z m -7.441716,-10.34497 c 0.709505,-1.52153 -0.801391,-2.99959 -2.336958,-2.28618 -0.732384,0.34025 -1.112449,1.31749 -0.824781,2.12063 0.504433,1.40829 2.532725,1.51448 3.161739,0.16555 z m -10.478894,7.20792 c 0.525877,-1.25769 -0.678204,-2.61905 -2.018493,-2.28216 -0.890656,0.22387 -1.457745,1.10957 -1.269819,1.98319 0.369188,1.71628 2.610476,1.92006 3.288312,0.29897 z m -7.604965,-10.71769 c 0.189522,-0.78778 -0.119309,-1.64143 -0.728134,-2.01264 -0.32126,-0.19588 -1.014488,-0.29043 -1.395027,-0.19025 -0.735292,0.19355 -1.324017,0.96043 -1.312729,1.71001 0.01201,0.79836 0.468182,1.40031 1.263156,1.66682 0.886677,0.29725 1.958064,-0.28161 2.172735,-1.17394 z m 9.225317,-7.17694 c 0.199247,-0.7597 -0.0048,-1.42817 -0.564483,-1.84928 -0.351088,-0.26417 -1.021256,-0.41927 -1.457728,-0.33738 -0.340288,0.0639 -0.920166,0.4815 -1.111681,0.80067 -0.552076,0.91998 -0.07111,2.18318 0.963173,2.52992 0.87714,0.29405 1.940573,-0.26637 2.170706,-1.14395 z m -7.492626,-10.0182 c 0.437986,-0.5917 0.434411,-1.64338 -0.0075,-2.2096 -0.109216,-0.13994 -0.361076,-0.33814 -0.55972,-0.44047 -0.909628,-0.46857 -1.96314,-0.12682 -2.410219,0.78185 -0.366721,0.74545 -0.155536,1.68647 0.48705,2.16995 0.44986,0.33848 1.19092,0.44799 1.705305,0.25201 0.52003,-0.19813 0.523919,-0.20088 0.785148,-0.55368 z m 5.087044,-18.46696 c 0.46232,-0.99142 -0.148994,-2.20874 -1.210294,-2.41015 -0.537816,-0.10207 -0.953801,0.004 -1.408296,0.35892 -0.432519,0.33773 -0.64616,0.78268 -0.652752,1.35909 -0.0092,0.81072 0.760755,1.64828 1.556513,1.69309 0.720847,0.0406 1.4192,-0.36705 1.714802,-1.00097 z m -17.768218,13.40883 c 0.442051,-0.84545 0.04426,-1.9671 -0.835821,-2.35662 -0.331613,-0.14678 -1.039144,-0.14685 -1.39414,-1.7e-4 -0.411448,0.17002 -0.42961,0.18415 -0.69155,0.5372 -0.483218,0.65286 -0.429948,1.59166 0.124386,2.19214 0.834048,0.90347 2.226452,0.71779 2.796814,-0.37295 z m 2.552917,-13.11005 c 0.472841,-1.01404 -0.02001,-2.12671 -1.077278,-2.43206 -0.634586,-0.18327 -1.189655,-0.0524 -1.688092,0.39815 -0.481654,0.43541 -0.65238,0.98388 -0.519985,1.67089 0.104255,0.54093 0.368954,0.89684 0.85211,1.14573 0.917522,0.47263 2.012041,0.12055 2.433246,-0.78271 z m 42.537641,28.41099 -14.992416,-19.20929 -0.459752,0.0813 c -0.617042,0.10908 -1.699512,-0.0669 -2.286869,-0.37171 -1.4109,-0.73229 -2.263385,-2.34873 -2.06921,-3.92359 0.189151,-1.53409 1.261222,-2.77951 2.762659,-3.20938 l 0.570296,-0.16328 0.341339,-6.94824 0.341353,-6.94822 -1.387474,-1.72448 -1.387478,-1.72449 -0.512272,0.11471 c -0.68099,0.15248 -1.822372,0.001 -2.506461,-0.33208 -0.514727,-0.25085 -0.599499,-0.32857 -1.207274,-1.10726 -0.624691,-0.80039 -0.659862,-0.86733 -0.793938,-1.51137 -0.661473,-3.17729 2.526796,-5.65882 5.455881,-4.24677 0.67335,0.32465 0.720314,0.36525 1.298473,1.10529 0.568229,0.72805 0.607401,0.80528 0.746356,1.47018 0.0875,0.41872 0.110974,0.96551 0.05821,1.35567 -0.08472,0.62635 -0.470793,1.59567 -0.709885,1.78227 -0.09927,0.0774 0.02997,0.27265 1.021088,1.54253 l 1.134705,1.45386 1.797928,-1.40577 1.797925,-1.40578 -0.141248,-0.54399 c -0.384798,-1.48198 0.435994,-3.29369 1.842897,-4.06786 2.94361,-1.61978 6.403603,1.01459 5.563817,4.23617 -0.459609,1.76314 -2.113623,2.98788 -3.898815,2.88693 -0.559978,-0.0317 -1.588759,-0.36951 -1.893135,-0.62169 l -0.214569,-0.17773 -1.973877,1.54311 -1.973899,1.54311 -0.338449,6.98516 c -0.201961,4.16815 -0.292541,7.03259 -0.224577,7.10282 0.06274,0.0647 0.304551,0.25668 0.537604,0.42655 1.472631,1.07344 1.940514,2.97924 1.165297,4.7466 l -0.220123,0.5018 2.003112,-1.62998 c 1.101754,-0.89642 2.395154,-1.93697 2.874251,-2.3123 l 0.871091,-0.68239 0.169813,-2.25537 c 0.0934,-1.24044 0.161741,-2.32051 0.151882,-2.40017 -0.01065,-0.0861 -0.214664,-0.26269 -0.503482,-0.43572 -0.635512,-0.38075 -1.386808,-1.3049 -1.627536,-2.00206 -0.38128,-1.10422 -0.180083,-2.47892 0.507878,-3.47004 1.138735,-1.64054 3.437251,-2.12852 5.138428,-1.09089 2.828981,1.72553 2.302951,5.95819 -0.866384,6.97138 -0.489249,0.15639 -0.502269,0.16623 -0.523002,0.39487 -0.01165,0.12901 -0.06911,0.90349 -0.127592,1.72116 -0.05848,0.81769 -0.121331,1.66456 -0.13962,1.88198 l -0.03328,0.39529 2.131353,0.38076 2.13134,0.38075 0.271149,-0.57819 c 0.257204,-0.54825 0.314434,-0.61185 1.107164,-1.2306 0.783075,-0.61117 0.876965,-0.66162 1.483545,-0.79737 2.49325,-0.55796 4.84142,1.50015 4.61367,4.04377 -0.10733,1.19854 -0.63395,2.0839 -1.67087,2.80907 -0.51467,0.35996 -0.74407,0.46136 -1.30951,0.57908 -1.39655,0.29076 -2.70506,-0.13561 -3.616326,-1.17833 -0.326903,-0.37406 -0.572457,-0.73817 -0.69592,-1.03177 l -0.190766,-0.45376 -2.568909,-0.46295 -2.568913,-0.46294 -1.759406,1.37353 c -0.967701,0.75543 -2.356013,1.87369 -3.085238,2.48495 l -1.325768,1.11148 1.423935,1.82445 1.423937,1.82444 3.980017,0.48993 3.980027,0.48993 5.81194,-4.54243 5.81194,-4.54244 0.0778,-1.69879 c 0.0428,-0.93434 0.0862,-1.91406 0.0963,-2.17717 l 0.0185,-0.47837 -0.33659,-0.19602 c -2.14567,-1.24989 -2.59393,-4.15403 -0.92433,-5.98835 1.12037,-1.23088 3.05738,-1.56677 4.57764,-0.79379 1.98016,1.00683 2.68019,3.57047 1.49532,5.47618 -0.41877,0.67352 -1.33714,1.38655 -2.06528,1.6043 -0.28704,0.0856 -0.54462,0.17333 -0.5724,0.19496 -0.0657,0.0511 -0.25084,3.69612 -0.19164,3.77196 0.0248,0.0318 0.87927,0.24199 1.89887,0.46713 1.01958,0.22517 1.97585,0.43921 2.12502,0.47565 l 0.27125,0.0662 0.24603,-0.44834 c 0.47368,-0.86341 1.46766,-1.58827 2.49899,-1.82249 0.72657,-0.16501 1.83986,-0.0261 2.54606,0.31772 0.57903,0.28194 0.64799,0.34264 1.24006,1.10186 0.61068,0.78245 0.6312,0.82337 0.78559,1.57095 0.64738,3.13397 -2.52938,5.61473 -5.41138,4.226 -0.6203,-0.29891 -0.74892,-0.40113 -1.23351,-0.98005 -0.4428,-0.52903 -0.57797,-0.75549 -0.74469,-1.2477 l -0.20366,-0.60138 -2.47174,-0.55656 -2.47174,-0.55655 -6.14736,4.80041 -6.147356,4.80041 -3.359169,-0.45183 -3.359169,-0.45183 5.0318,6.45424 5.031784,6.45421 3.19093,-2.49044 3.19092,-2.49044 0.0501,-2.05318 c 0.0345,-1.41359 0.008,-2.0759 -0.086,-2.12615 -0.73613,-0.39465 -1.06423,-0.68042 -1.52511,-1.32833 -0.37667,-0.52951 -0.51068,-0.80074 -0.61539,-1.24538 -0.1857,-0.78859 -0.0677,-1.82466 0.29266,-2.56949 0.27992,-0.57861 0.33458,-0.63891 1.13305,-1.26256 0.79882,-0.62347 0.8707,-0.66144 1.49997,-0.79245 0.80678,-0.16797 1.83875,-0.0323 2.56708,0.33753 0.46856,0.23788 0.58692,0.34798 1.14938,1.06862 0.60975,0.78127 0.63133,0.82437 0.78427,1.56462 0.29126,1.40998 -0.14236,2.6739 -1.24112,3.61763 -0.47937,0.41168 -0.71176,0.55297 -1.18471,0.71815 -0.48312,0.16908 -0.59069,0.23521 -0.60205,0.37006 -0.0394,0.46885 -0.0834,3.15864 -0.0533,3.25726 0.0192,0.0631 1.01052,0.29913 2.20276,0.52444 l 2.16769,0.40963 0.16356,-0.35066 c 0.0902,-0.19272 0.36112,-0.56789 0.6027,-0.83334 1.14865,-1.26243 3.00259,-1.57729 4.59006,-0.77953 0.56781,0.2856 0.65677,0.36413 1.20869,1.0713 0.55286,0.70835 0.60662,0.81182 0.74681,1.43774 0.1847,0.82463 0.0765,1.8482 -0.27073,2.5603 -0.94627,1.94075 -3.26695,2.71395 -5.24917,1.74894 -0.73701,-0.35879 -1.56935,-1.32908 -1.86556,-2.17471 l -0.20131,-0.57466 -2.47867,-0.46274 -2.47869,-0.46273 -3.19196,2.49125 -3.19195,2.49125 5.61681,7.19662 5.61679,7.19663 4.39795,-3.43249 4.39794,-3.43249 0.65245,0.83597 0.65246,0.83597 -5.2339,4.08496 -5.23391,4.08494 z m 20.805927,-2.04308 c 0.59854,-1.16467 -0.0755,-2.42857 -1.35348,-2.53889 -1.51247,-0.13054 -2.41785,1.5632 -1.4788,2.76639 0.75414,0.96624 2.28219,0.8435 2.83227,-0.2275 z m -8.52517,-9.54148 c 0.22195,-0.39524 0.26079,-1.23519 0.0739,-1.59663 -0.54174,-1.04755 -1.80938,-1.36326 -2.69583,-0.6714 -0.88646,0.69185 -0.88811,1.9982 -0.004,2.77817 0.2971,0.26196 1.12129,0.43524 1.54862,0.32558 0.38233,-0.0981 0.87923,-0.48374 1.07702,-0.83552 z m 9.65045,-8.3172 c 0.2676,-0.36157 0.40822,-1.06351 0.29555,-1.47552 -0.12382,-0.45277 -0.54464,-0.94872 -0.97546,-1.14961 -0.87287,-0.40702 -2.01507,0.0993 -2.32769,1.03178 -0.44941,1.34057 0.8536,2.6179 2.21119,2.16761 0.44031,-0.14607 0.52428,-0.20662 0.79641,-0.57426 z M 103.53839,262.964 c 0.21036,-0.42822 0.2156,-1.01596 0.0129,-1.52608 -0.31823,-0.80077 -1.52437,-1.22573 -2.34558,-0.82641 -0.59283,0.28826 -0.92155,0.78788 -0.97906,1.48844 -0.15678,1.90788 2.46204,2.59114 3.31176,0.86405 z m 8.97966,-6.99952 c 0.7526,-1.01682 0.1607,-2.51933 -1.06904,-2.71371 -1.41419,-0.22353 -2.43795,1.09178 -1.87619,2.41048 0.33913,0.79604 1.28342,1.18956 2.15596,0.89846 0.36459,-0.12163 0.53237,-0.24816 0.78928,-0.59522 z m -28.268757,8.14312 c 0.597431,-0.80717 0.335128,-2.06221 -0.530478,-2.53818 -0.366255,-0.2014 -1.042761,-0.25591 -1.437792,-0.11586 -0.95938,0.34013 -1.391042,1.37879 -0.976954,2.35081 0.339119,0.79603 1.283432,1.18957 2.155963,0.89847 0.364598,-0.12164 0.532381,-0.24817 0.789283,-0.59522 z m 10.895624,-10.90055 c 0.850722,-1.3305 -0.261978,-2.90987 -1.837826,-2.60865 -1.00384,0.19188 -1.596463,1.37661 -1.180781,2.3606 0.363118,0.8596 1.351076,1.25815 2.235105,0.90166 0.436802,-0.17616 0.525593,-0.25022 0.78356,-0.65355 z m -2.173361,-12.9271 c 0.242092,-0.43043 0.29934,-0.83153 0.187096,-1.31019 -0.332003,-1.41596 -2.18588,-1.82665 -3.077074,-0.68167 -0.383342,0.4925 -0.479285,1.30101 -0.218125,1.8381 0.307451,0.63228 0.736264,0.92117 1.466252,0.98774 0.709495,0.0647 1.307171,-0.23885 1.641851,-0.83398 z m -12.557089,-1.01913 c 0.437507,-0.5911 0.42638,-1.51913 -0.02515,-2.09766 -0.765924,-0.98135 -2.287504,-0.85175 -2.874674,0.24486 -0.770198,1.43843 0.668994,2.99293 2.215253,2.39273 0.341074,-0.13238 0.441605,-0.21168 0.684229,-0.54036 z"
                 id="path831-0"
                 inkscape:connector-curvature="0" />
              <path
                 style="fill:#ffffff;fill-opacity:0.49803922;stroke-width:0.09221283"
                 d="m 125.51207,279.16734 1.01446,-0.3089 1.62508,5.33696 1.62507,5.33693 8.73319,-2.65921 8.73318,-2.65922 -1.22893,-4.03579 -1.22892,-4.03577 -2.01903,-0.914 -2.01906,-0.914 -0.46954,0.41829 c -0.42651,0.38007 -0.55819,0.44562 -1.43964,0.71404 -0.90828,0.27657 -1.01391,0.28904 -1.65076,0.19486 -3.16342,-0.46781 -4.35427,-4.36738 -2.00633,-6.56839 0.48159,-0.45112 0.55562,-0.48986 1.48091,-0.77166 0.92351,-0.2812 1.0093,-0.29082 1.65336,-0.18563 1.71127,0.27948 3.04794,1.66969 3.20661,3.33503 0.091,0.95584 0.009,0.87632 1.70914,1.6464 0.86093,0.38981 1.67224,0.75853 1.80291,0.81933 0.23675,0.11013 0.24088,0.10561 1.16538,-1.28446 l 0.92777,-1.395 -0.34326,-0.49861 c -0.26816,-0.38948 -0.38238,-0.65988 -0.52182,-1.23558 -0.33301,-1.37477 0.0726,-2.72571 1.11149,-3.70253 2.06365,-1.94024 5.42915,-1.04327 6.25217,1.6664 0.25317,0.83327 0.27113,1.42943 0.0653,2.1592 -0.52345,1.85571 -2.31246,3.04062 -4.2061,2.78581 l -0.53429,-0.0719 -1.06613,1.59149 -1.06615,1.5915 1.22697,4.03638 1.22697,4.03637 7.4754,-2.27623 7.47539,-2.27622 -2.55566,-1.36657 -2.55568,-1.36654 -2.32781,-7.42233 -2.32781,-7.42235 -2.59206,-1.10446 c -2.24519,-0.95667 -2.62203,-1.08885 -2.81598,-0.98806 -0.12318,0.064 -0.64093,0.24258 -1.15063,0.39684 -0.83193,0.25184 -0.98571,0.27102 -1.50346,0.18834 -1.7136,-0.27364 -3.0668,-1.60925 -3.28859,-3.2458 -0.17603,-1.2988 0.26322,-2.52852 1.22459,-3.42823 0.49588,-0.46426 0.57242,-0.50478 1.4559,-0.77383 0.8986,-0.27362 0.9603,-0.27935 1.69788,-0.15786 0.93616,0.1542 1.69082,0.56573 2.33117,1.27112 0.41673,0.45898 0.48544,0.58819 0.71676,1.34557 0.26544,0.87003 0.29466,1.49736 0.0974,2.10586 -0.0504,0.15618 -0.0811,0.31727 -0.0678,0.35801 0.0226,0.0674 4.1598,1.86807 4.31265,1.87662 0.0362,0.002 0.57336,-0.77949 1.19374,-1.73668 l 1.12799,-1.74036 -0.46361,-0.50995 c -0.43415,-0.47792 -0.48227,-0.57115 -0.7587,-1.48036 -0.28132,-0.9253 -0.28963,-1.00231 -0.17845,-1.6539 0.53497,-3.13567 4.39744,-4.30101 6.57061,-1.98242 0.43303,0.46193 0.47184,0.53824 0.76563,1.50296 0.28443,0.93414 0.30191,1.06298 0.21577,1.59353 -0.14432,0.88914 -0.53513,1.62797 -1.18339,2.23755 -0.47879,0.4499 -0.66507,0.5643 -1.27291,0.78065 -0.43244,0.15388 -0.90086,0.25944 -1.19262,0.26872 l -0.48049,0.0153 -1.36623,2.10744 -1.36622,2.10744 2.19235,7.01931 2.19233,7.01931 3.13191,1.64557 3.13191,1.64556 2.52341,-0.7645 2.52341,-0.7645 -0.36547,-1.4069 c -0.20101,-0.77379 -0.66232,-2.38247 -1.02526,-3.57481 l -0.65983,-2.1679 -2.47423,-1.15009 -2.47423,-1.15007 -0.56819,0.27411 c -1.53694,0.74149 -3.33704,0.40115 -4.51032,-0.85271 -0.86931,-0.92902 -1.22849,-2.37186 -0.89192,-3.58272 0.60375,-2.17201 2.90993,-3.3909 5.00463,-2.64507 0.70991,0.25277 1.50499,0.86273 1.89669,1.45511 0.57953,0.87638 0.8256,2.31972 0.54056,3.17071 -0.0578,0.17273 -0.0925,0.35554 -0.0771,0.40628 0.0255,0.0836 3.76475,1.86858 3.93479,1.87829 0.0395,0.002 0.54948,-0.795 1.13307,-1.77169 l 1.06109,-1.77581 -0.23023,-0.27822 c -0.93005,-1.12372 -1.09559,-2.87456 -0.39731,-4.20162 1.22996,-2.33751 4.41703,-2.70962 6.20527,-0.72449 1.62089,1.79947 1.124,4.6869 -1.0072,5.85221 -0.61503,0.3363 -1.54676,0.53276 -2.18839,0.46145 -0.50072,-0.0556 -0.51259,-0.0526 -0.65407,0.16875 -0.0793,0.12398 -0.61915,1.0185 -1.19979,1.98783 -0.58063,0.96932 -1.06036,1.76604 -1.06605,1.7705 -0.005,0.005 0.45327,1.63453 1.02,3.62237 l 1.03039,3.61426 2.15844,-0.65724 2.15846,-0.65723 3.82363,-7.27484 3.82318,-7.27467 -0.83434,-2.74004 -0.83433,-2.74005 -0.45259,-0.055 c -1.15596,-0.14044 -2.1614,-0.74928 -2.79252,-1.69089 -0.92849,-1.38532 -0.84085,-3.24565 0.21538,-4.57178 0.81245,-1.02009 2.26374,-1.57748 3.55718,-1.36624 2.11614,0.34561 3.55127,2.30796 3.22611,4.41127 -0.11773,0.76159 -0.65679,1.74318 -1.24297,2.26347 l -0.47289,0.41988 0.73729,2.4214 0.73731,2.42137 1.45197,-0.50545 c 0.79858,-0.278 1.68314,-0.57585 1.96568,-0.66189 l 0.51371,-0.15641 0.0912,-0.52226 c 0.26883,-1.53443 1.64255,-2.82047 3.22702,-3.02102 1.27188,-0.16102 2.48373,0.27777 3.32639,1.20438 0.43575,0.47966 0.48362,0.57232 0.76112,1.4837 0.28037,0.92072 0.29013,1.00805 0.18549,1.64915 -0.15172,0.92894 -0.52733,1.61658 -1.23529,2.26168 -0.53426,0.48732 -0.6456,0.54951 -1.37701,0.77401 -0.92314,0.2834 -1.49266,0.28447 -2.37524,0.004 -0.66308,-0.21045 -1.55566,-0.88081 -1.89206,-1.42104 l -0.22656,-0.36391 -2.1439,0.71963 -2.14391,0.71963 -3.30551,6.17917 c -1.81803,3.39854 -3.323,6.2604 -3.34439,6.3597 -0.0366,0.17013 0.11272,0.13437 2.59666,-0.62199 l 2.63557,-0.80251 -0.002,-0.37349 c -0.003,-0.57453 0.38904,-1.54462 0.85128,-2.10877 0.57939,-0.7071 1.12181,-1.04134 2.08501,-1.2851 0.65543,-0.16582 0.88872,-0.17995 1.45224,-0.0879 0.8861,0.14473 1.65711,0.55405 2.26459,1.20211 0.46797,0.49991 0.50314,0.56577 0.78601,1.49497 0.27721,0.91034 0.28968,1.01548 0.19541,1.65261 -0.12836,0.86808 -0.54883,1.65775 -1.21537,2.28247 -0.49792,0.46613 -0.56419,0.50167 -1.49494,0.78483 -0.92532,0.28176 -1.00838,0.29099 -1.65965,0.18464 -0.87234,-0.14248 -1.69227,-0.57883 -2.26571,-1.20578 l -0.4486,-0.49067 -29.45924,8.97022 -29.45895,8.97013 -1.93399,-6.35146 -1.93399,-6.35141 z m 10.88427,-6.15699 c 0.98397,1.11705 2.74151,0.65836 3.09125,-0.80695 0.0572,-0.23944 0.0351,-0.51258 -0.069,-0.85439 -0.12627,-0.41469 -0.21931,-0.55483 -0.53316,-0.80236 -1.15189,-0.9087 -2.82963,-0.18332 -2.89708,1.25256 -0.024,0.51196 0.0898,0.84981 0.408,1.21114 z m 12.32678,-3.2324 c 1.16541,1.20841 3.08734,0.32873 2.97267,-1.36057 -0.0547,-0.8057 -0.83037,-1.51123 -1.68324,-1.53102 -1.4955,-0.0347 -2.32268,1.8203 -1.28943,2.89159 z M 145.757,257.41012 c 0.98514,0.94225 2.68795,0.30711 2.85461,-1.06478 0.11075,-0.91166 -0.51236,-1.75888 -1.39521,-1.89707 -1.73442,-0.27149 -2.72915,1.74729 -1.4594,2.96185 z m 12.73324,-3.25098 c 0.66725,0.45966 1.57487,0.47784 2.13988,0.0428 0.29815,-0.22953 0.63523,-0.84263 0.67832,-1.23377 0.0833,-0.75576 -0.42116,-1.58053 -1.12484,-1.83906 -0.74946,-0.27537 -1.47504,-0.0657 -2.00915,0.58067 -0.59571,0.72088 -0.44002,1.92865 0.31579,2.44932 z m 3.38717,11.18669 c 0.63756,0.45866 1.33479,0.50798 1.92866,0.13694 0.37256,-0.2329 0.75792,-0.80269 0.83816,-1.23947 0.0625,-0.34055 -0.11912,-1.03168 -0.34827,-1.325 -0.66047,-0.84554 -2.01216,-0.85002 -2.70705,-0.009 -0.5893,0.71314 -0.44795,1.90686 0.28853,2.43666 z m 12.04005,-3.39721 c 0.39505,0.62119 1.37793,0.99536 2.06486,0.78661 0.16981,-0.0517 0.44521,-0.21563 0.61203,-0.36431 0.76384,-0.68084 0.82304,-1.78679 0.13541,-2.53025 -0.56387,-0.61009 -1.51824,-0.75052 -2.20017,-0.32431 -0.47739,0.29838 -0.84561,0.95074 -0.84734,1.5012 -0.002,0.55649 -5.7e-4,0.56111 0.23496,0.93157 z m 15.41023,11.37681 c 0.7594,0.78737 2.11502,0.65377 2.68396,-0.26451 0.28832,-0.46532 0.33864,-0.89167 0.17051,-1.44327 -0.15996,-0.52492 -0.49858,-0.88405 -1.03422,-1.09709 -0.75346,-0.29941 -1.8115,0.1184 -2.13897,0.84504 -0.29664,0.65822 -0.16684,1.45638 0.31872,1.95982 z m -6.13724,-21.39722 c 0.6304,0.7161 1.82011,0.74745 2.49959,0.0658 0.25603,-0.25683 0.51007,-0.91718 0.50059,-1.30116 -0.011,-0.44506 -0.0177,-0.46708 -0.25317,-0.83829 -0.43589,-0.68537 -1.33125,-0.97263 -2.09069,-0.67078 -1.14264,0.45416 -1.46915,1.82041 -0.65584,2.74429 z m 11.31995,7.08868 c 0.77674,0.80533 1.99216,0.74473 2.65668,-0.13248 0.39885,-0.52651 0.47594,-1.09157 0.23433,-1.71852 -0.2335,-0.60584 -0.68414,-0.96206 -1.37288,-1.08509 -0.54231,-0.0969 -0.96951,0.0224 -1.37524,0.38406 -0.77051,0.68669 -0.83475,1.83468 -0.14289,2.55203 z m -41.78659,29.5045 23.31068,-7.09801 0.0892,-0.4583 c 0.11968,-0.61507 0.67249,-1.56222 1.16782,-2.00102 1.18994,-1.054 3.00465,-1.26946 4.40484,-0.52292 1.36396,0.72722 2.14156,2.17489 2.00384,3.73055 l -0.0523,0.59091 6.36265,2.81268 6.36263,2.8127 2.10759,-0.676 2.10761,-0.67599 0.0768,-0.51931 c 0.10213,-0.69034 0.65322,-1.70128 1.20965,-2.22021 0.41873,-0.39058 0.52189,-0.44158 1.46683,-0.72937 0.97128,-0.29575 1.04639,-0.30455 1.69563,-0.19851 3.20298,0.52311 4.37469,4.38965 2.00534,6.61667 -0.54475,0.51191 -0.59914,0.54156 -1.49773,0.81519 -0.8835,0.26902 -0.96964,0.27786 -1.6401,0.16888 -0.42223,-0.0686 -0.94101,-0.24299 -1.28622,-0.4323 -0.55419,-0.30389 -1.32033,-1.01219 -1.40867,-1.30233 -0.0366,-0.12045 -0.26526,-0.0699 -1.80625,0.39935 l -1.76428,0.53721 0.66671,2.18271 0.66672,2.18272 0.55844,0.0634 c 1.52134,0.17281 2.91768,1.58922 3.13524,3.18026 0.45522,3.32884 -3.24557,5.61263 -5.95101,3.67242 -1.48065,-1.06187 -2.03006,-3.04527 -1.29503,-4.67526 0.23059,-0.51128 0.91518,-1.35024 1.25981,-1.5438 l 0.24291,-0.13647 -0.73174,-2.39623 -0.73173,-2.39626 -6.39815,-2.82324 c -3.81787,-1.68467 -6.45889,-2.79742 -6.54884,-2.75919 -0.0829,0.0353 -0.3489,0.1921 -0.5911,0.34866 -1.53051,0.98917 -3.47724,0.74177 -4.84855,-0.61618 l -0.38932,-0.3856 0.80233,2.4547 c 0.4412,1.35011 0.94813,2.93082 1.12648,3.51271 l 0.32423,1.05798 2.0441,0.96808 c 1.12424,0.53243 2.1078,0.98391 2.18569,1.00331 0.0841,0.021 0.32224,-0.10608 0.58741,-0.31353 0.58348,-0.45651 1.71574,-0.82598 2.45285,-0.80042 1.16749,0.0405 2.37835,0.72173 3.05648,1.71961 1.12245,1.65172 0.75284,3.97221 -0.82629,5.18756 -2.626,2.02106 -6.38775,0.0108 -6.19577,-3.31105 0.0297,-0.51278 0.0251,-0.52847 -0.18082,-0.62989 -0.11626,-0.0571 -0.81847,-0.38881 -1.56066,-0.7369 -0.74219,-0.34812 -1.51007,-0.71074 -1.70643,-0.80586 l -0.357,-0.17297 -1.12044,1.85263 -1.12043,1.85263 0.44231,0.46064 c 0.41936,0.43688 0.45821,0.51309 0.75116,1.4751 0.28936,0.95027 0.30274,1.05602 0.21171,1.67089 -0.37419,2.52738 -3.13802,3.98029 -5.43037,2.85468 -1.08014,-0.5304 -1.71746,-1.33973 -2.0221,-2.56784 -0.15122,-0.60959 -0.16352,-0.86009 -0.0704,-1.43011 0.22991,-1.40784 1.09757,-2.4761 2.3979,-2.95236 0.46647,-0.17083 0.89445,-0.26932 1.21281,-0.27917 l 0.49199,-0.0152 1.35422,-2.23153 1.35421,-2.23153 -0.65045,-2.13519 c -0.35772,-1.17437 -0.90312,-2.87157 -1.21188,-3.77161 l -0.56152,-1.63638 -2.21398,0.67415 -2.21398,0.67415 -1.88592,3.5389 -1.88593,3.53892 2.15348,7.05513 2.1535,7.05513 1.55764,0.6824 c 0.85672,0.37534 1.75556,0.76752 1.99751,0.87139 l 0.43985,0.18898 0.30377,-0.24381 c 1.93679,-1.55402 4.80828,-0.92995 5.92105,1.28681 0.74668,1.48753 0.36489,3.41603 -0.90227,4.55751 -1.65054,1.48676 -4.29459,1.21993 -5.64798,-0.57003 -0.47833,-0.63261 -0.81417,-1.74574 -0.75603,-2.50352 0.0231,-0.29863 0.0337,-0.57054 0.0235,-0.60423 -0.0241,-0.0797 -3.35975,-1.56086 -3.4518,-1.53283 -0.0386,0.0117 -0.54147,0.73381 -1.11759,1.60464 -0.57615,0.87081 -1.11918,1.68652 -1.20674,1.81267 l -0.15915,0.2294 0.33015,0.39056 c 0.63586,0.75202 0.9556,1.93997 0.80401,2.98665 -0.10679,0.73737 -0.63606,1.7266 -1.21047,2.26232 -0.47128,0.43892 -0.55237,0.48185 -1.47354,0.7619 -0.94952,0.28913 -0.99508,0.29358 -1.74825,0.16934 -3.15748,-0.52071 -4.33261,-4.37624 -2.00192,-6.56768 0.50134,-0.472 0.64319,-0.55505 1.35751,-0.79951 0.65271,-0.22339 0.9126,-0.26826 1.43185,-0.24719 l 0.63441,0.0258 1.40671,-2.10724 1.4067,-2.10723 -2.27387,-7.4608 -2.27387,-7.4608 1.6275,-2.97311 1.6275,-2.97311 -7.83028,2.37968 -7.83025,2.37968 1.17907,3.87223 1.17907,3.87221 1.89836,0.78376 c 1.307,0.53962 1.93469,0.75262 2.01533,0.68293 0.63257,-0.54542 1.01708,-0.74907 1.78725,-0.94667 0.62942,-0.1615 0.93067,-0.18921 1.38328,-0.12734 0.80269,0.10974 1.72735,0.59178 2.29318,1.19549 0.43954,0.469 0.47621,0.54165 0.77171,1.51073 0.29518,0.96938 0.30482,1.0501 0.20123,1.68446 -0.13283,0.81331 -0.62989,1.7278 -1.2365,2.27484 -0.39013,0.35205 -0.53544,0.42293 -1.40999,0.68919 -0.94807,0.28868 -0.99604,0.29335 -1.74186,0.17038 -1.42056,-0.23426 -2.44459,-1.09267 -2.93102,-2.45697 -0.21218,-0.5952 -0.26063,-0.86281 -0.24504,-1.36354 0.0156,-0.51161 -0.007,-0.63575 -0.12929,-0.69476 -0.42346,-0.20507 -2.9182,-1.21164 -3.02105,-1.21895 -0.0658,-0.005 -0.64192,0.8358 -1.28018,1.86771 l -1.16042,1.87619 0.26849,0.27861 c 0.14769,0.15318 0.40039,0.54092 0.56146,0.86166 0.76598,1.52526 0.39438,3.36866 -0.92004,4.56398 -0.4705,0.42732 -0.57562,0.48229 -1.43378,0.74358 -0.85959,0.26175 -0.97545,0.27479 -1.60999,0.18096 -0.83597,-0.12361 -1.75248,-0.59201 -2.29248,-1.17172 -1.47174,-1.57985 -1.3604,-4.02341 0.25182,-5.52712 0.59924,-0.55933 1.80383,-0.98768 2.69942,-0.96062 l 0.60863,0.0184 1.32163,-2.14738 1.32163,-2.1474 -1.17945,-3.87348 -1.17947,-3.87346 -8.73318,2.65922 -8.73318,2.6592 1.62508,5.33696 1.62508,5.33694 -1.01446,0.3089 -1.01446,0.3089 -1.934,-6.35141 -1.93397,-6.3514 z m -5.56145,20.15269 c 0.87217,0.97674 2.29382,0.80128 2.85553,-0.35193 0.66474,-1.36481 -0.59113,-2.81783 -2.05122,-2.37324 -1.17255,0.35705 -1.60649,1.82731 -0.80432,2.72517 z m 11.96573,-4.53206 c 0.28924,0.34903 1.05926,0.68679 1.4637,0.64209 1.1722,-0.12961 1.92189,-1.19944 1.59434,-2.27516 -0.32755,-1.07573 -1.54623,-1.5462 -2.5916,-1.00097 -0.35113,0.18327 -0.80871,0.89033 -0.85976,1.32855 -0.0457,0.39206 0.1359,0.99427 0.39324,1.30516 z m 4.29885,11.99279 c 0.24138,0.37958 0.84609,0.76277 1.27109,0.80549 0.46704,0.047 1.08099,-0.16778 1.42314,-0.49778 0.69321,-0.66859 0.63063,-1.91643 -0.12749,-2.54293 -1.08991,-0.90066 -2.74983,-0.14299 -2.81686,1.28576 -0.0217,0.46339 0.005,0.5635 0.25012,0.94946 z m 9.13317,-14.97734 c 0.32446,0.34979 0.87086,0.56592 1.41975,0.55983 0.86163,-0.01 1.69122,-0.98279 1.61328,-1.89261 -0.0562,-0.65679 -0.40458,-1.14295 -1.03779,-1.44809 -1.72447,-0.83117 -3.30222,1.36785 -1.99525,2.78089 z m 3.30976,10.89372 c 0.6789,1.06744 2.29374,1.05432 2.91659,-0.0237 0.71626,-1.23971 -0.1439,-2.66737 -1.57636,-2.6164 -0.86473,0.0308 -1.57098,0.77089 -1.61249,1.68977 -0.0173,0.38395 0.0405,0.58597 0.27225,0.95034 z m 2.54676,-29.3078 c 0.53892,0.84735 1.80447,1.05304 2.55944,0.41597 0.31946,-0.26953 0.61316,-0.88141 0.62424,-1.30039 0.0269,-1.01754 -0.78759,-1.79325 -1.84346,-1.75567 -0.86471,0.0308 -1.57099,0.7709 -1.61249,1.68976 -0.0173,0.38398 0.0405,0.58599 0.27224,0.95034 z m 6.26306,14.08228 c 0.93645,1.27162 2.80997,0.8 3.09448,-0.77895 0.18125,-1.00582 -0.71181,-1.98421 -1.77946,-1.94942 -0.93265,0.0304 -1.65927,0.80942 -1.64386,1.7625 0.008,0.47093 0.0449,0.58039 0.32873,0.96593 z m 12.84571,2.61172 c 0.31487,0.38044 0.66866,0.57787 1.15571,0.64492 1.44077,0.1984 2.48955,-1.38452 1.74077,-2.62731 -0.32208,-0.53459 -1.04226,-0.91435 -1.63731,-0.86338 -0.7005,0.06 -1.12405,0.35653 -1.44822,1.01397 -0.31507,0.63899 -0.24628,1.3058 0.18905,1.8318 z m 5.45862,-11.3544 c 0.39466,0.62053 1.26484,0.94326 1.96691,0.72944 1.19088,-0.36261 1.61609,-1.82931 0.80333,-2.77098 -1.06612,-1.23517 -3.0336,-0.44991 -3.02844,1.20874 0.001,0.36585 0.0391,0.48815 0.25874,0.83259 z"
                 id="path831-0-5"
                 inkscape:connector-curvature="0" />
            </g>
          </g>
        </g>
      </g>
    </g>
  </g>
</svg>
