<?xml version="1.0" encoding="UTF-8" standalone="no"?>
<!-- Created with Inkscape (http://www.inkscape.org/) -->

<svg
   xmlns:dc="http://purl.org/dc/elements/1.1/"
   xmlns:cc="http://creativecommons.org/ns#"
   xmlns:rdf="http://www.w3.org/1999/02/22-rdf-syntax-ns#"
   xmlns:svg="http://www.w3.org/2000/svg"
   xmlns="http://www.w3.org/2000/svg"
   xmlns:sodipodi="http://sodipodi.sourceforge.net/DTD/sodipodi-0.dtd"
   xmlns:inkscape="http://www.inkscape.org/namespaces/inkscape"
   version="1.1"
   id="svg2"
   width="520"
   height="167"
   viewBox="0 0 520 167"
   sodipodi:docname="profilight.svg"
   inkscape:version="0.92.3 (2405546, 2018-03-11)">
  <metadata
     id="metadata8">
    <rdf:RDF>
      <cc:Work
         rdf:about="">
        <dc:format>image/svg+xml</dc:format>
        <dc:type
           rdf:resource="http://purl.org/dc/dcmitype/StillImage" />
        <dc:title></dc:title>
      </cc:Work>
    </rdf:RDF>
  </metadata>
  <defs
     id="defs6" />
  <sodipodi:namedview
     pagecolor="#ffffff"
     bordercolor="#666666"
     borderopacity="1"
     objecttolerance="10"
     gridtolerance="10"
     guidetolerance="10"
     inkscape:pageopacity="0"
     inkscape:pageshadow="2"
     inkscape:window-width="3840"
     inkscape:window-height="2093"
     id="namedview4"
     showgrid="false"
     inkscape:zoom="3.6409572"
     inkscape:cx="321.27289"
     inkscape:cy="94.560756"
     inkscape:window-x="-18"
     inkscape:window-y="-18"
     inkscape:window-maximized="1"
     inkscape:current-layer="svg2" />
  <path
     style="fill:#000000;stroke-width:0.66666669"
     d="m 349.44536,166.45936 c -6.42272,-1.73284 -9.67736,-3.13077 -14.38506,-6.17865 -2.29167,-1.48368 -4.16667,-2.80473 -4.16667,-2.93567 0,-0.13094 2.28255,-3.98912 5.07232,-8.57373 l 5.07233,-8.33567 2.80759,2.30061 c 6.42771,5.26703 16.41983,7.73468 23.1521,5.71764 5.95855,-1.78522 9.85003,-7.9586 10.41658,-16.52468 l 0.31817,-4.81052 -2.85215,2.6331 c -4.46863,4.12541 -8.95277,5.49634 -16.98693,5.19338 -6.0562,-0.22837 -7.05203,-0.45823 -10.87506,-2.51021 -7.31639,-3.92701 -12.58221,-11.2514 -15.09925,-21.00197 -1.35321,-5.24212 -1.36182,-18.090823 -0.0157,-23.386533 2.56358,-10.08505 8.63498,-18.39769 16.1228,-22.07447 3.54079,-1.73866 4.48611,-1.89873 11.20051,-1.89657 6.65572,0.002 7.64526,0.16676 10.70898,1.78155 1.8566,0.97854 4.4816,3.00335 5.83333,4.49956 l 2.45769,2.72037 v -3.66859 -3.66858 h 9.70289 9.70289 l -0.24627,36.833323 c -0.21929,32.79896 -0.37514,37.26686 -1.4229,40.79137 -3.74988,12.61398 -11.31121,20.37135 -22.76431,23.35451 -5.50778,1.43459 -17.97968,1.29831 -23.7539,-0.25957 z m 21.17539,-51.77818 c 10.00492,-6.48731 9.98622,-23.337173 -0.0332,-29.930403 -2.36487,-1.55618 -3.23215,-1.74452 -7.10079,-1.54201 -5.38756,0.28202 -8.44109,2.29303 -10.92518,7.19514 -3.23376,6.3815 -2.84206,14.172123 1.0186,20.259753 3.64136,5.74183 11.51754,7.59873 17.04059,4.01752 z m 127.19646,19.98043 c -3.93862,-1.39684 -7.8486,-5.0211 -9.4613,-8.76994 -2.21266,-5.14346 -2.78518,-10.74826 -2.79057,-27.318623 l -0.005,-15.49999 h -4.66667 -4.66667 v -8.66667 -8.66666 h 4.66667 4.66667 v -9.33334 -9.33333 h 10 10 v 9.33333 9.33334 h 7 7 v 8.66666 8.66667 h -7 -7 l 0.004,13.83333 c 0.002,7.608333 0.31693,14.961173 0.69974,16.339643 1.02325,3.68459 3.06745,4.74814 8.31639,4.3268 l 4.3132,-0.34624 v 8.51076 8.51075 l -2.96188,0.74581 c -4.14652,1.04411 -14.78375,0.84898 -18.11455,-0.3323 z M -0.4397164,116.17291 V 97.939427 l 8.8333334,-0.40867 c 13.839316,-0.64026 20.520885,-3.0884 26.728525,-9.79339 5.95784,-6.43518 8.373843,-15.48553 7.029085,-26.33098 -0.815008,-6.57302 -2.902663,-11.29826 -6.861598,-15.53069 -5.944687,-6.35535 -12.587918,-8.67476 -26.562679,-9.27406 l -9.1666664,-0.39311 V 18.307457 0.406392 H 129.56029 259.5603 v 56.999995 57.000003 h 17.33333 17.33334 v 10 10 H 265.5603 236.89363 V 100.07305 65.739727 h -10 -10 v 34.333323 34.33334 H 206.22696 195.5603 v -26 -26.000003 h 6.66666 6.66667 v -8.33333 -8.33333 h -6.66667 -6.66666 l 0.004,-5.83334 c 0.005,-7.35887 0.818,-10.28431 3.48247,-12.52632 1.89831,-1.59732 2.53717,-1.75173 6.26549,-1.51433 l 4.15164,0.26435 0.40861,-5.69518 c 0.22474,-3.13235 0.57211,-7.10178 0.77194,-8.82096 l 0.36333,-3.12578 -2.55694,-0.54089 c -3.60692,-0.763 -12.04342,-0.56342 -15.32849,0.36262 -3.79178,1.06888 -8.75556,4.53151 -11.29451,7.87883 -3.64727,4.8085 -5.03345,10.0169 -5.42517,20.38433 l -0.34634,9.16667 h -5.58122 -5.5812 v 8.33333 8.33333 h 5.66666 5.66667 v 26.000003 26 l -18.83333,-0.0249 -18.83334,-0.0248 3.66054,-1.80851 c 7.75735,-3.83254 14.52,-12.767 16.99172,-22.44856 1.29178,-5.05986 1.28672,-14.787743 -0.0105,-20.291193 -4.16405,-17.66521 -20.79474,-28.70967 -37.93192,-25.19063 -7.04934,1.44754 -11.70914,3.8355 -16.35453,8.38101 -4.10873,4.02039 -7.162539,9.31798 -9.093959,15.77573 -1.45444,4.86299 -1.6294,15.705883 -0.33827,20.965143 2.28897,9.32389 8.972409,18.42596 16.547199,22.53536 l 3.86282,2.09578 -22.500049,0.0178 -22.500002,0.0178 V 115.3171 c 0,-21.130683 0.22858,-22.713363 3.899907,-27.002483 2.939147,-3.43372 5.61626,-4.57486 10.732647,-4.57486 4.799121,0 4.570601,0.5269 4.843507,-11.16775 l 0.190607,-8.16775 -2.114554,-0.39666 c -5.80512,-1.089 -12.73996,2.92437 -16.81656,9.73216 l -1.397234,2.33333 -0.0027,-5.16667 -0.0023,-5.16666 h -9.33332 -9.333334 v 34.333323 34.33334 H 25.560284 -0.4397164 Z M 231.35924,55.009027 c 3.90232,-1.88908 6.48677,-6.24618 6.48677,-10.93597 0,-4.68979 -2.58445,-9.04689 -6.48677,-10.93597 -1.58762,-0.76855 -3.5515,-1.39736 -4.36417,-1.39736 -6.10469,0 -12.36433,8.03729 -11.0768,14.22245 0.80309,3.85796 3.43126,7.53389 6.45744,9.03182 3.57854,1.77134 5.34935,1.7743 8.98353,0.015 z M 300.22697,99.73972 V 65.073057 h 10.33333 10.33333 V 99.73972 134.40639 H 310.5603 300.22697 Z m 110,-17.666663 v -52.33333 h 10.33334 10.33333 v 21.45333 21.45333 l 2.33491,-2.72782 c 1.2842,-1.5003 3.89311,-3.5043 5.79756,-4.45333 2.92455,-1.45737 4.34883,-1.72324 9.16509,-1.71087 8.90642,0.0229 14.59564,3.4579 18.31805,11.06004 3.1531,6.43948 3.66881,11.57055 3.69446,36.758643 l 0.0233,22.83334 h -10.33333 -10.33333 v -20.879 c 0,-16.754753 -0.20049,-21.554103 -1.01495,-24.296703 -1.31647,-4.43302 -3.45954,-6.15763 -7.65172,-6.15763 -3.7771,0 -6.02885,1.53037 -8.18527,5.56302 -1.42917,2.67265 -1.48848,3.52831 -1.68227,24.270313 l -0.20087,21.5 H 420.52614 410.22701 Z M 121.89363,116.02679 c -5.31664,-2.75948 -8.47135,-8.50115 -8.58249,-15.6204 -0.0897,-5.746203 1.2203,-10.003543 4.12085,-13.392173 2.9084,-3.39782 5.63021,-4.60783 10.36488,-4.60783 2.97216,0 4.18262,0.38418 6.82682,2.16667 4.4067,2.97063 6.51064,7.17885 6.83888,13.67883 0.57556,11.397733 -4.96906,18.827623 -14.04238,18.817063 -1.93961,-0.002 -4.42656,-0.47124 -5.52656,-1.04216 z M -0.4397164,67.408127 v -11.80884 l 7.8333338,0.23753 c 6.7279506,0.20401 8.1760986,0.45059 10.2623586,1.74739 3.056469,1.89988 4.570975,5.04383 4.570975,9.48885 0,4.51689 -1.571436,7.69747 -4.887236,9.89177 -2.428043,1.6068 -3.385751,1.79522 -10.2291416,2.01245 l -7.5502898,0.23968 z M 304.38127,54.906387 c -2.70352,-1.87723 -5.48764,-7.28159 -5.48764,-10.65231 0,-4.68224 2.83976,-9.51707 6.80023,-11.5777 2.97649,-1.54866 8.49654,-1.20419 11.30707,0.70561 6.8623,4.66306 6.8623,16.71908 0,21.38214 -3.32329,2.25823 -9.47248,2.32755 -12.61966,0.14226 z"
     id="path12"
     inkscape:connector-curvature="0" />
</svg>
